<?xml version="1.0" encoding="UTF-8"?>
<!DOCTYPE svg PUBLIC "-//W3C//DTD SVG 1.1//EN" "http://www.w3.org/Graphics/SVG/1.1/DTD/svg11.dtd">
<!-- Creator: CorelDRAW -->
<svg xmlns="http://www.w3.org/2000/svg" xml:space="preserve" width="0.708661in" height="0.275591in" version="1.1" style="shape-rendering:geometricPrecision; text-rendering:geometricPrecision; image-rendering:optimizeQuality; fill-rule:evenodd; clip-rule:evenodd"
viewBox="0 0 708.66 275.59"
 xmlns:xlink="http://www.w3.org/1999/xlink"
 xmlns:xodm="http://www.corel.com/coreldraw/odm/2003">
 <defs>
  <style type="text/css">
   <![CDATA[
    .str0 {stroke:white;stroke-width:10.42;stroke-miterlimit:2.61313}
    .str1 {stroke:white;stroke-width:5.21;stroke-linecap:round;stroke-linejoin:round;stroke-miterlimit:2.61313}
    .fil1 {fill:none;fill-rule:nonzero}
    .fil0 {fill:black;fill-rule:nonzero}
    .fil2 {fill:white;fill-rule:nonzero}
   ]]>
  </style>
 </defs>
 <g id="Layer_x0020_1">
  <metadata id="CorelCorpID_0Corel-Layer"/>
  <g id="App_x0020_store_x0020_icon.svg">
   <path class="fil0" d="M75.77 25.11l551.23 0c29.89,0 54.14,24.23 54.14,54.1l0 127.86c0,29.87 -24.24,54.09 -54.14,54.09l-551.23 0c-29.89,-0 -54.14,-24.23 -54.14,-54.1l-0 -127.86c0,-29.87 24.25,-54.1 54.15,-54.1z"/>
   <path class="fil1 str0" d="M75.77 25.11l551.23 0c29.89,0 54.14,24.23 54.14,54.1l0 127.86c0,29.87 -24.24,54.09 -54.14,54.09l-551.23 0c-29.89,-0 -54.14,-24.23 -54.14,-54.1l-0 -127.86c0,-29.87 24.25,-54.1 54.15,-54.1z"/>
   <path class="fil0 str1" d="M204.13 194.48c-2.68,6.24 -6,12.2 -9.89,17.77 -5.2,7.41 -9.45,12.54 -12.73,15.39 -5.09,4.67 -10.55,7.07 -16.37,7.2 -4.19,0 -9.24,-1.2 -15.13,-3.61 -5.89,-2.4 -11.32,-3.6 -16.28,-3.59 -5.2,-0 -10.78,1.19 -16.74,3.59 -5.97,2.41 -10.8,3.68 -14.47,3.8 -5.59,0.24 -11.18,-2.23 -16.74,-7.4 -3.56,-3.1 -8,-8.41 -13.33,-15.93 -5.72,-8.03 -10.41,-17.35 -14.09,-27.97 -3.94,-11.47 -5.91,-22.58 -5.91,-33.33 0,-12.32 2.67,-22.94 8,-31.85 4.19,-7.15 9.77,-12.79 16.75,-16.93 10.47,-6.21 14.53,-6.25 22.65,-6.39 4.44,0 10.28,1.38 17.52,4.08 7.22,2.71 11.85,4.07 13.89,4.08 1.52,0 6.67,-1.6 15.41,-4.81 8.26,-2.97 15.24,-4.21 20.94,-3.72 15.48,1.25 27.11,7.35 34.84,18.33 -13.84,8.39 -20.69,20.11 -20.55,35.17 0.12,11.72 4.38,21.49 12.75,29.23 3.7,3.54 8.02,6.37 12.73,8.35 -0.98,2.87 -2.06,5.72 -3.24,8.52zm-35.49 -139.56c-0.01,9.2 -3.36,17.78 -10.06,25.72 -8.09,9.44 -17.87,14.9 -28.47,14.04 -0.14,-1.16 -0.21,-2.32 -0.21,-3.49 0,-8.82 3.84,-18.27 10.67,-25.99 3.41,-3.91 7.75,-7.17 13,-9.76 5.25,-2.56 10.21,-3.96 14.88,-4.21 0.13,1.23 0.19,2.45 0.19,3.68l0 0z"/>
   <path class="fil2" d="M275.1 118.55l-8.84 0 0 -28.61 9.23 0c2.78,0 5.15,0.57 7.13,1.72 1.98,1.13 3.49,2.77 4.54,4.9 1.06,2.13 1.58,4.67 1.58,7.63 0,2.98 -0.53,5.55 -1.6,7.7 -1.06,2.14 -2.61,3.79 -4.64,4.94 -2.04,1.15 -4.5,1.72 -7.41,1.72zm-5.37 -3.07l5.15 0c2.37,0 4.33,-0.46 5.89,-1.37 1.56,-0.91 2.72,-2.21 3.48,-3.89 0.76,-1.69 1.15,-3.7 1.15,-6.02 0,-2.31 -0.38,-4.3 -1.13,-5.97 -0.75,-1.67 -1.88,-2.96 -3.38,-3.85 -1.5,-0.9 -3.37,-1.35 -5.61,-1.35l-5.54 0 0 22.47zm33.11 3.52c-1.94,0 -3.64,-0.46 -5.1,-1.39 -1.45,-0.92 -2.59,-2.21 -3.41,-3.87 -0.81,-1.66 -1.22,-3.6 -1.22,-5.81 0,-2.24 0.41,-4.19 1.22,-5.85 0.82,-1.67 1.96,-2.96 3.41,-3.88 1.46,-0.92 3.17,-1.38 5.1,-1.38 1.94,0 3.64,0.46 5.09,1.38 1.46,0.92 2.6,2.22 3.41,3.88 0.82,1.67 1.23,3.62 1.23,5.85 0,2.21 -0.41,4.15 -1.23,5.81 -0.81,1.66 -1.95,2.95 -3.41,3.87 -1.45,0.93 -3.15,1.39 -5.09,1.39zm0 -2.96c1.48,0 2.69,-0.38 3.64,-1.13 0.95,-0.76 1.65,-1.75 2.11,-2.98 0.46,-1.23 0.69,-2.56 0.69,-4 0,-1.44 -0.22,-2.77 -0.69,-4.01 -0.46,-1.24 -1.16,-2.24 -2.11,-3 -0.95,-0.76 -2.16,-1.15 -3.64,-1.15 -1.47,0 -2.68,0.38 -3.63,1.15 -0.95,0.77 -1.65,1.77 -2.11,3 -0.46,1.24 -0.69,2.57 -0.69,4.01 0,1.43 0.23,2.76 0.69,4 0.46,1.23 1.16,2.22 2.11,2.98 0.95,0.75 2.16,1.13 3.63,1.13zm18.91 2.51l-6.54 -21.46 3.47 0 4.64 16.43 0.22 0 4.58 -16.43 3.52 0 4.53 16.37 0.22 0 4.64 -16.37 3.47 0 -6.54 21.46 -3.24 0 -4.7 -16.48 -0.33 0 -4.7 16.48 -3.24 0zm30.43 -12.91l0 12.91 -3.3 0 0 -21.46 3.19 0 0 3.35 0.28 0c0.5,-1.09 1.26,-1.96 2.29,-2.63 1.02,-0.67 2.35,-1 3.97,-1 1.45,0 2.72,0.3 3.81,0.89 1.09,0.59 1.94,1.48 2.54,2.69 0.61,1.19 0.91,2.7 0.91,4.52l0 13.63 -3.3 0 0 -13.41c0,-1.69 -0.44,-3 -1.32,-3.94 -0.87,-0.95 -2.07,-1.43 -3.6,-1.43 -1.06,0 -2,0.23 -2.83,0.69 -0.81,0.46 -1.46,1.12 -1.94,2 -0.48,0.87 -0.71,1.94 -0.71,3.19zm23.03 -15.7l0 28.61 -3.3 0 0 -28.61 3.3 0zm14.77 29.06c-1.94,0 -3.64,-0.46 -5.11,-1.39 -1.45,-0.92 -2.59,-2.21 -3.41,-3.87 -0.81,-1.66 -1.22,-3.6 -1.22,-5.81 0,-2.24 0.41,-4.19 1.22,-5.85 0.82,-1.67 1.96,-2.96 3.41,-3.88 1.46,-0.92 3.17,-1.38 5.11,-1.38 1.94,0 3.63,0.46 5.09,1.38 1.46,0.92 2.6,2.22 3.41,3.88 0.82,1.67 1.23,3.62 1.23,5.85 0,2.21 -0.41,4.15 -1.23,5.81 -0.81,1.66 -1.95,2.95 -3.41,3.87 -1.45,0.93 -3.15,1.39 -5.09,1.39zm0 -2.96c1.47,0 2.69,-0.38 3.63,-1.13 0.95,-0.76 1.65,-1.75 2.11,-2.98 0.46,-1.23 0.68,-2.56 0.68,-4 0,-1.44 -0.22,-2.77 -0.68,-4.01 -0.46,-1.24 -1.16,-2.24 -2.11,-3 -0.95,-0.76 -2.16,-1.15 -3.63,-1.15 -1.48,0 -2.69,0.38 -3.64,1.15 -0.95,0.77 -1.65,1.77 -2.11,3 -0.46,1.24 -0.69,2.57 -0.69,4.01 0,1.43 0.22,2.76 0.69,4 0.46,1.23 1.16,2.22 2.11,2.98 0.95,0.75 2.16,1.13 3.64,1.13zm21.09 3.02c-1.36,0 -2.59,-0.26 -3.7,-0.77 -1.11,-0.52 -1.99,-1.27 -2.64,-2.25 -0.65,-0.99 -0.98,-2.18 -0.98,-3.57 0,-1.23 0.24,-2.23 0.73,-2.99 0.48,-0.78 1.13,-1.38 1.94,-1.82 0.81,-0.44 1.7,-0.77 2.69,-0.98 0.98,-0.22 1.98,-0.4 2.98,-0.53 1.31,-0.17 2.36,-0.3 3.17,-0.38 0.82,-0.09 1.42,-0.25 1.79,-0.46 0.39,-0.22 0.57,-0.59 0.57,-1.12l0 -0.11c0,-1.38 -0.38,-2.45 -1.13,-3.22 -0.75,-0.76 -1.88,-1.15 -3.4,-1.15 -1.58,0 -2.81,0.35 -3.7,1.04 -0.9,0.69 -1.53,1.43 -1.89,2.2l-3.13 -1.11c0.56,-1.3 1.31,-2.32 2.24,-3.05 0.94,-0.74 1.96,-1.25 3.07,-1.54 1.12,-0.3 2.22,-0.44 3.3,-0.44 0.69,0 1.48,0.08 2.37,0.25 0.91,0.16 1.78,0.49 2.62,0.99 0.85,0.5 1.55,1.26 2.11,2.28 0.56,1.02 0.83,2.37 0.83,4.08l0 14.13 -3.3 0 0 -2.9 -0.17 0c-0.22,0.46 -0.59,0.96 -1.12,1.5 -0.52,0.53 -1.21,0.98 -2.08,1.35 -0.87,0.38 -1.93,0.56 -3.18,0.56zm0.5 -2.96c1.31,0 2.41,-0.26 3.3,-0.77 0.91,-0.51 1.59,-1.17 2.04,-1.98 0.47,-0.81 0.7,-1.67 0.7,-2.56l0 -3.02c-0.14,0.17 -0.44,0.32 -0.92,0.46 -0.47,0.13 -1.01,0.25 -1.62,0.35 -0.61,0.09 -1.2,0.18 -1.78,0.25 -0.57,0.06 -1.03,0.12 -1.39,0.17 -0.85,0.11 -1.66,0.29 -2.4,0.54 -0.74,0.24 -1.33,0.61 -1.8,1.1 -0.44,0.49 -0.67,1.15 -0.67,1.98 0,1.15 0.43,2.01 1.27,2.6 0.86,0.58 1.95,0.87 3.26,0.87zm23.47 2.91c-1.79,0 -3.37,-0.46 -4.74,-1.36 -1.37,-0.91 -2.44,-2.2 -3.22,-3.85 -0.78,-1.67 -1.16,-3.64 -1.16,-5.91 0,-2.26 0.39,-4.21 1.16,-5.87 0.77,-1.66 1.85,-2.94 3.23,-3.85 1.38,-0.9 2.97,-1.35 4.78,-1.35 1.4,0 2.5,0.23 3.31,0.69 0.82,0.46 1.44,0.98 1.87,1.57 0.44,0.58 0.78,1.05 1.02,1.43l0.28 0 0 -10.56 3.3 0 0 28.61 -3.19 0 0 -3.3 -0.39 0c-0.24,0.39 -0.59,0.89 -1.04,1.48 -0.45,0.59 -1.08,1.11 -1.91,1.58 -0.83,0.45 -1.93,0.69 -3.31,0.69zm0.44 -2.96c1.33,0 2.44,-0.35 3.36,-1.03 0.91,-0.7 1.61,-1.66 2.08,-2.89 0.48,-1.24 0.71,-2.67 0.71,-4.29 0,-1.6 -0.23,-3 -0.7,-4.2 -0.46,-1.21 -1.16,-2.15 -2.07,-2.82 -0.91,-0.68 -2.04,-1.02 -3.39,-1.02 -1.4,0 -2.56,0.36 -3.49,1.08 -0.92,0.7 -1.62,1.67 -2.08,2.89 -0.46,1.2 -0.69,2.57 -0.69,4.07 0,1.53 0.23,2.92 0.7,4.17 0.48,1.24 1.17,2.23 2.1,2.96 0.93,0.73 2.09,1.09 3.46,1.09zm35.7 2.96c-1.94,0 -3.64,-0.46 -5.11,-1.39 -1.45,-0.92 -2.59,-2.21 -3.41,-3.87 -0.81,-1.66 -1.22,-3.6 -1.22,-5.81 0,-2.24 0.41,-4.19 1.22,-5.85 0.82,-1.67 1.96,-2.96 3.41,-3.88 1.46,-0.92 3.17,-1.38 5.11,-1.38 1.94,0 3.63,0.46 5.09,1.38 1.47,0.92 2.6,2.22 3.41,3.88 0.82,1.67 1.23,3.62 1.23,5.85 0,2.21 -0.41,4.15 -1.23,5.81 -0.81,1.66 -1.94,2.95 -3.41,3.87 -1.45,0.93 -3.15,1.39 -5.09,1.39zm0 -2.96c1.47,0 2.69,-0.38 3.63,-1.13 0.95,-0.76 1.65,-1.75 2.11,-2.98 0.46,-1.23 0.68,-2.56 0.68,-4 0,-1.44 -0.22,-2.77 -0.68,-4.01 -0.46,-1.24 -1.16,-2.24 -2.11,-3 -0.95,-0.76 -2.16,-1.15 -3.63,-1.15 -1.48,0 -2.69,0.38 -3.64,1.15 -0.95,0.77 -1.65,1.77 -2.11,3 -0.46,1.24 -0.69,2.57 -0.69,4.01 0,1.43 0.23,2.76 0.69,4 0.46,1.23 1.16,2.22 2.11,2.98 0.95,0.75 2.16,1.13 3.64,1.13zm18.07 -10.39l0 12.91 -3.3 0 0 -21.46 3.19 0 0 3.35 0.28 0c0.5,-1.09 1.27,-1.96 2.29,-2.63 1.03,-0.67 2.35,-1 3.97,-1 1.46,0 2.73,0.3 3.82,0.89 1.09,0.59 1.94,1.48 2.54,2.69 0.61,1.19 0.91,2.7 0.91,4.52l0 13.63 -3.3 0 0 -13.41c0,-1.69 -0.44,-3 -1.31,-3.94 -0.88,-0.95 -2.08,-1.43 -3.61,-1.43 -1.05,0 -1.99,0.23 -2.82,0.69 -0.82,0.46 -1.47,1.12 -1.94,2 -0.48,0.87 -0.72,1.94 -0.72,3.19zm40.15 -8.55l0 2.8 -11.13 0 0 -2.8 11.13 0zm-7.89 -5.14l3.3 0 0 20.45c0,0.93 0.13,1.63 0.41,2.09 0.28,0.45 0.63,0.76 1.07,0.92 0.44,0.15 0.89,0.22 1.38,0.22 0.36,0 0.66,-0.02 0.89,-0.06 0.23,-0.05 0.42,-0.09 0.56,-0.11l0.67 2.96c-0.22,0.09 -0.54,0.17 -0.94,0.25 -0.4,0.09 -0.91,0.14 -1.52,0.14 -0.93,0 -1.85,-0.2 -2.74,-0.6 -0.89,-0.4 -1.62,-1.01 -2.21,-1.83 -0.57,-0.82 -0.87,-1.85 -0.87,-3.11l0 -21.34zm16.61 13.69l0 12.91 -3.3 0 0 -28.61 3.3 0 0 10.51 0.28 0c0.5,-1.11 1.26,-1.99 2.27,-2.64 1.02,-0.66 2.37,-0.99 4.06,-0.99 1.46,0 2.74,0.29 3.84,0.87 1.1,0.58 1.95,1.47 2.56,2.67 0.61,1.19 0.92,2.71 0.92,4.56l0 13.63 -3.3 0 0 -13.41c0,-1.7 -0.44,-3.02 -1.33,-3.95 -0.87,-0.94 -2.09,-1.41 -3.65,-1.41 -1.08,0 -2.05,0.23 -2.91,0.69 -0.85,0.46 -1.52,1.12 -2.02,2 -0.48,0.87 -0.73,1.94 -0.73,3.19zm28.97 13.36c-2.07,0 -3.85,-0.46 -5.35,-1.37 -1.49,-0.92 -2.65,-2.2 -3.46,-3.85 -0.8,-1.66 -1.2,-3.59 -1.2,-5.78 0,-2.2 0.4,-4.13 1.2,-5.81 0.81,-1.69 1.94,-3 3.39,-3.94 1.46,-0.95 3.15,-1.42 5.09,-1.42 1.11,0 2.22,0.19 3.31,0.56 1.09,0.37 2.08,0.98 2.98,1.81 0.9,0.83 1.61,1.93 2.14,3.3 0.53,1.37 0.8,3.06 0.8,5.06l0 1.4 -16.56 0 0 -2.85 13.2 0c0,-1.21 -0.24,-2.29 -0.72,-3.24 -0.48,-0.95 -1.16,-1.7 -2.04,-2.25 -0.87,-0.55 -1.91,-0.83 -3.1,-0.83 -1.31,0 -2.45,0.33 -3.41,0.98 -0.95,0.64 -1.68,1.48 -2.19,2.52 -0.52,1.03 -0.77,2.14 -0.77,3.32l0 1.9c0,1.62 0.28,3 0.84,4.13 0.57,1.12 1.35,1.97 2.36,2.56 1,0.57 2.18,0.87 3.51,0.87 0.87,0 1.65,-0.12 2.35,-0.36 0.71,-0.25 1.32,-0.63 1.83,-1.12 0.52,-0.5 0.91,-1.13 1.19,-1.87l3.19 0.89c-0.33,1.08 -0.9,2.04 -1.69,2.85 -0.8,0.81 -1.77,1.45 -2.94,1.9 -1.17,0.44 -2.47,0.67 -3.93,0.67z"/>
   <path class="fil2" d="M257.95 197.24l-12.98 0 19.78 -57.23 15.6 0 19.74 57.23 -12.98 0 -14.35 -44.15 -0.44 0 -14.38 44.15zm-0.81 -22.5l30.65 0 0 9.44 -30.65 0 0 -9.44zm49.62 38.59l0 -59.01 11.74 0 0 7.21 0.54 0c0.52,-1.16 1.28,-2.33 2.26,-3.52 1.01,-1.21 2.31,-2.21 3.91,-3.02 1.62,-0.82 3.63,-1.23 6.04,-1.23 3.13,0 6.02,0.82 8.67,2.46 2.65,1.62 4.76,4.07 6.35,7.35 1.58,3.26 2.38,7.35 2.38,12.26 0,4.79 -0.78,8.83 -2.32,12.13 -1.53,3.28 -3.62,5.76 -6.26,7.46 -2.63,1.68 -5.58,2.52 -8.84,2.52 -2.31,0 -4.28,-0.38 -5.9,-1.15 -1.61,-0.76 -2.92,-1.72 -3.94,-2.87 -1.02,-1.18 -1.81,-2.36 -2.35,-3.55l-0.37 0 0 22.97 -11.91 0zm11.67 -37.56c0,2.55 0.35,4.78 1.06,6.68 0.71,1.9 1.73,3.38 3.08,4.44 1.34,1.04 2.97,1.56 4.89,1.56 1.94,0 3.58,-0.53 4.92,-1.59 1.34,-1.08 2.36,-2.57 3.05,-4.47 0.71,-1.92 1.06,-4.13 1.06,-6.62 0,-2.48 -0.34,-4.65 -1.04,-6.54 -0.69,-1.88 -1.7,-3.35 -3.05,-4.41 -1.34,-1.06 -2.99,-1.59 -4.95,-1.59 -1.94,0 -3.58,0.51 -4.92,1.54 -1.33,1.02 -2.34,2.48 -3.05,4.36 -0.71,1.88 -1.06,4.1 -1.06,6.65zm38.17 37.56l0 -59.01 11.74 0 0 7.21 0.54 0c0.52,-1.16 1.28,-2.33 2.26,-3.52 1.01,-1.21 2.31,-2.21 3.92,-3.02 1.62,-0.82 3.63,-1.23 6.04,-1.23 3.13,0 6.02,0.82 8.67,2.46 2.65,1.62 4.76,4.07 6.35,7.35 1.58,3.26 2.38,7.35 2.38,12.26 0,4.79 -0.78,8.83 -2.32,12.13 -1.53,3.28 -3.62,5.76 -6.26,7.46 -2.63,1.68 -5.57,2.52 -8.84,2.52 -2.31,0 -4.28,-0.38 -5.9,-1.15 -1.6,-0.76 -2.91,-1.72 -3.94,-2.87 -1.02,-1.18 -1.81,-2.36 -2.35,-3.55l-0.37 0 0 22.97 -11.91 0zm11.66 -37.56c0,2.55 0.35,4.78 1.06,6.68 0.7,1.9 1.73,3.38 3.07,4.44 1.34,1.04 2.97,1.56 4.89,1.56 1.94,0 3.58,-0.53 4.92,-1.59 1.34,-1.08 2.36,-2.57 3.05,-4.47 0.71,-1.92 1.06,-4.13 1.06,-6.62 0,-2.48 -0.34,-4.65 -1.03,-6.54 -0.69,-1.88 -1.71,-3.35 -3.05,-4.41 -1.34,-1.06 -2.99,-1.59 -4.95,-1.59 -1.94,0 -3.58,0.51 -4.92,1.54 -1.33,1.02 -2.34,2.48 -3.05,4.36 -0.71,1.88 -1.06,4.1 -1.06,6.65zm87.69 -19.31c-0.22,-2.25 -1.19,-4 -2.88,-5.25 -1.7,-1.25 -4,-1.87 -6.91,-1.87 -1.98,0 -3.65,0.28 -5,0.84 -1.36,0.54 -2.41,1.29 -3.13,2.26 -0.71,0.97 -1.06,2.07 -1.06,3.3 -0.04,1.03 0.17,1.92 0.64,2.69 0.49,0.76 1.15,1.43 1.99,1.98 0.84,0.54 1.81,1.02 2.91,1.43 1.09,0.39 2.27,0.72 3.52,1l5.14 1.23c2.5,0.56 4.8,1.31 6.88,2.24 2.09,0.93 3.89,2.08 5.42,3.44 1.53,1.36 2.71,2.96 3.56,4.81 0.85,1.84 1.3,3.96 1.31,6.34 -0.02,3.5 -0.91,6.54 -2.69,9.11 -1.76,2.56 -4.29,4.54 -7.61,5.95 -3.3,1.4 -7.28,2.1 -11.94,2.1 -4.62,0 -8.65,-0.71 -12.08,-2.13 -3.41,-1.41 -6.07,-3.51 -8,-6.28 -1.91,-2.8 -2.9,-6.25 -2.99,-10.37l11.72 0c0.13,1.92 0.68,3.52 1.65,4.81 0.99,1.26 2.3,2.23 3.94,2.88 1.66,0.63 3.53,0.95 5.62,0.95 2.05,0 3.83,-0.3 5.34,-0.89 1.53,-0.59 2.71,-1.42 3.55,-2.49 0.84,-1.06 1.26,-2.28 1.26,-3.66 0,-1.28 -0.38,-2.36 -1.15,-3.24 -0.74,-0.87 -1.84,-1.62 -3.3,-2.23 -1.43,-0.61 -3.2,-1.18 -5.28,-1.68l-6.24 -1.57c-4.83,-1.17 -8.64,-3.01 -11.44,-5.5 -2.8,-2.5 -4.19,-5.85 -4.17,-10.09 -0.02,-3.46 0.91,-6.49 2.77,-9.08 1.89,-2.59 4.47,-4.61 7.75,-6.06 3.28,-1.45 7.01,-2.18 11.19,-2.18 4.25,0 7.96,0.72 11.13,2.18 3.19,1.46 5.67,3.48 7.44,6.06 1.77,2.59 2.69,5.59 2.74,9l-11.61 0zm43.15 -2.15l0 8.94 -25.86 0 0 -8.94 25.86 0zm-19.99 -10.28l11.91 0 0 40.01c0,1.1 0.17,1.96 0.5,2.57 0.33,0.59 0.8,1.02 1.4,1.26 0.62,0.24 1.32,0.37 2.12,0.37 0.56,0 1.12,-0.05 1.68,-0.14 0.56,-0.11 0.99,-0.2 1.29,-0.25l1.87 8.85c-0.6,0.19 -1.44,0.4 -2.52,0.64 -1.08,0.26 -2.39,0.42 -3.94,0.48 -2.87,0.11 -5.39,-0.27 -7.55,-1.15 -2.14,-0.88 -3.81,-2.24 -5.01,-4.08 -1.19,-1.84 -1.78,-4.17 -1.76,-6.98l0 -41.57zm46.7 54.04c-4.34,0 -8.1,-0.92 -11.27,-2.77 -3.15,-1.86 -5.58,-4.45 -7.3,-7.77 -1.72,-3.33 -2.57,-7.2 -2.57,-11.6 0,-4.43 0.86,-8.31 2.57,-11.62 1.72,-3.33 4.15,-5.93 7.3,-7.77 3.17,-1.86 6.93,-2.8 11.27,-2.8 4.34,0 8.09,0.93 11.24,2.8 3.17,1.85 5.61,4.44 7.33,7.77 1.71,3.31 2.57,7.19 2.57,11.62 0,4.4 -0.86,8.26 -2.57,11.6 -1.72,3.31 -4.16,5.91 -7.33,7.77 -3.15,1.85 -6.9,2.77 -11.24,2.77zm0.06 -9.22c1.97,0 3.62,-0.56 4.94,-1.67 1.33,-1.14 2.32,-2.69 2.99,-4.64 0.69,-1.95 1.04,-4.18 1.04,-6.68 0,-2.5 -0.35,-4.72 -1.04,-6.68 -0.67,-1.96 -1.67,-3.5 -2.99,-4.64 -1.32,-1.14 -2.97,-1.7 -4.94,-1.7 -2,0 -3.68,0.57 -5.04,1.7 -1.34,1.13 -2.36,2.68 -3.05,4.64 -0.67,1.96 -1,4.18 -1,6.68 0,2.5 0.33,4.72 1,6.68 0.69,1.96 1.71,3.5 3.05,4.64 1.36,1.12 3.04,1.67 5.04,1.67zm28.83 8.39l0 -42.92 11.55 0 0 7.48 0.45 0c0.78,-2.66 2.09,-4.67 3.94,-6.03 1.85,-1.38 3.97,-2.07 6.38,-2.07 0.59,0 1.24,0.04 1.93,0.11 0.69,0.07 1.29,0.18 1.82,0.31l0 10.56c-0.56,-0.17 -1.34,-0.31 -2.32,-0.44 -0.99,-0.13 -1.89,-0.2 -2.71,-0.2 -1.75,0 -3.32,0.38 -4.7,1.15 -1.36,0.74 -2.44,1.79 -3.24,3.13 -0.79,1.34 -1.18,2.88 -1.18,4.63l0 24.28 -11.91 0zm49.8 0.84c-4.42,0 -8.22,-0.89 -11.41,-2.69 -3.17,-1.81 -5.61,-4.36 -7.33,-7.66 -1.72,-3.31 -2.57,-7.23 -2.57,-11.76 0,-4.42 0.85,-8.29 2.57,-11.63 1.71,-3.33 4.13,-5.93 7.24,-7.8 3.13,-1.86 6.8,-2.8 11.02,-2.8 2.83,0 5.47,0.46 7.91,1.37 2.46,0.89 4.61,2.24 6.43,4.05 1.85,1.81 3.28,4.08 4.31,6.81 1.03,2.72 1.54,5.91 1.54,9.56l0 3.27 -36.27 0 0 -7.38 25.06 0c0,-1.72 -0.37,-3.23 -1.12,-4.56 -0.74,-1.32 -1.78,-2.36 -3.11,-3.1 -1.3,-0.77 -2.82,-1.15 -4.56,-1.15 -1.81,0 -3.41,0.42 -4.81,1.26 -1.38,0.82 -2.46,1.93 -3.24,3.32 -0.78,1.38 -1.19,2.92 -1.2,4.61l0 7.02c0,2.12 0.39,3.96 1.17,5.5 0.8,1.55 1.93,2.74 3.38,3.57 1.46,0.84 3.18,1.26 5.18,1.26 1.32,0 2.53,-0.19 3.63,-0.56 1.1,-0.37 2.04,-0.93 2.82,-1.68 0.79,-0.74 1.38,-1.66 1.79,-2.74l11.02 0.73c-0.56,2.65 -1.7,4.96 -3.44,6.93 -1.72,1.96 -3.93,3.48 -6.66,4.58 -2.7,1.08 -5.83,1.62 -9.37,1.62z"/>
  </g>
 </g>
</svg>
