<?xml version="1.0" encoding="UTF-8"?>
<!DOCTYPE svg PUBLIC "-//W3C//DTD SVG 1.1//EN" "http://www.w3.org/Graphics/SVG/1.1/DTD/svg11.dtd">
<!-- Creator: CorelDRAW -->
<svg xmlns="http://www.w3.org/2000/svg" xml:space="preserve" width="0.708661in" height="0.275591in" version="1.1" style="shape-rendering:geometricPrecision; text-rendering:geometricPrecision; image-rendering:optimizeQuality; fill-rule:evenodd; clip-rule:evenodd"
viewBox="0 0 708.66 275.59"
 xmlns:xlink="http://www.w3.org/1999/xlink"
 xmlns:xodm="http://www.corel.com/coreldraw/odm/2003">
 <defs>
  <style type="text/css">
   <![CDATA[
    .str0 {stroke:white;stroke-width:10.42;stroke-miterlimit:2.61313}
    .fil1 {fill:none;fill-rule:nonzero}
    .fil0 {fill:black;fill-rule:nonzero}
    .fil2 {fill:white;fill-rule:nonzero}
   ]]>
  </style>
    <clipPath id="id0" style="clip-rule:nonzero">
     <path d="M50.41 220.14l149.85 0 0 -157.47 -149.85 0 0 157.47z"/>
    </clipPath>
 </defs>
 <g id="Layer_x0020_1">
  <metadata id="CorelCorpID_0Corel-Layer"/>
  <g id="Google_x0020_play_x0020_icon.svg">
   <path class="fil0" d="M70.39 18.37l559.41 0c30.34,0 54.94,24.24 54.94,54.13l0 127.95c0,29.89 -24.61,54.13 -54.94,54.13l-559.41 0c-30.33,-0 -54.94,-24.24 -54.94,-54.13l-0 -127.95c0,-29.89 24.61,-54.13 54.94,-54.13z"/>
   <path class="fil1 str0" d="M70.39 18.37l559.41 0c30.34,0 54.94,24.24 54.94,54.13l0 127.95c0,29.89 -24.61,54.13 -54.94,54.13l-559.41 0c-30.33,-0 -54.94,-24.24 -54.94,-54.13l-0 -127.95c0,-29.89 24.61,-54.13 54.94,-54.13z"/>
   <path class="fil2" d="M235.33 92.19c-0.47,-1.41 -1.09,-2.68 -1.85,-3.8 -0.76,-1.13 -1.65,-2.09 -2.7,-2.89 -1.04,-0.8 -2.22,-1.4 -3.53,-1.82 -1.32,-0.42 -2.77,-0.63 -4.34,-0.63 -2.58,0 -4.93,0.66 -7.05,1.97 -2.11,1.31 -3.8,3.25 -5.04,5.81 -1.25,2.56 -1.87,5.7 -1.87,9.42 0,3.72 0.63,6.85 1.89,9.41 1.26,2.56 2.98,4.49 5.13,5.81 2.16,1.32 4.59,1.97 7.28,1.97 2.5,0 4.7,-0.52 6.6,-1.57 1.92,-1.06 3.41,-2.56 4.47,-4.48 1.08,-1.94 1.62,-4.23 1.62,-6.86l1.62 0.33 -13.11 0 0 -4.61 16.6 0 0 4.61c0,3.54 -0.77,6.61 -2.3,9.23 -1.52,2.61 -3.62,4.64 -6.3,6.08 -2.67,1.43 -5.73,2.14 -9.19,2.14 -3.86,0 -7.25,-0.89 -10.17,-2.69 -2.91,-1.79 -5.18,-4.33 -6.81,-7.63 -1.62,-3.3 -2.43,-7.22 -2.43,-11.74 0,-3.4 0.46,-6.46 1.38,-9.17 0.94,-2.72 2.26,-5.05 3.96,-6.96 1.7,-1.92 3.72,-3.38 6.04,-4.41 2.33,-1.02 4.89,-1.53 7.69,-1.53 2.3,0 4.44,0.34 6.43,1.02 2,0.67 3.78,1.63 5.34,2.88 1.57,1.23 2.89,2.7 3.94,4.42 1.05,1.71 1.78,3.6 2.17,5.69l-5.45 0zm14.74 29.52l0 -42.94 26.31 0 0 4.61 -21.03 0 0 14.51 19.67 0 0 4.61 -19.67 0 0 14.6 21.37 0 0 4.61 -26.65 0zm33.44 -38.33l0 -4.61 32.69 0 0 4.61 -13.71 0 0 38.33 -5.28 0 0 -38.33 -13.7 0zm62.97 -4.61l0 42.94 -5.28 0 0 -42.94 5.28 0zm8.2 4.61l0 -4.61 32.69 0 0 4.61 -13.7 0 0 38.33 -5.28 0 0 -38.33 -13.71 0zm94.48 16.86c0,4.53 -0.83,8.44 -2.49,11.74 -1.66,3.3 -3.94,5.84 -6.83,7.63 -2.9,1.79 -6.2,2.69 -9.92,2.69 -3.71,0 -7.02,-0.89 -9.92,-2.69 -2.89,-1.79 -5.17,-4.33 -6.83,-7.63 -1.66,-3.3 -2.49,-7.22 -2.49,-11.74 0,-4.53 0.83,-8.44 2.49,-11.74 1.66,-3.3 3.94,-5.85 6.83,-7.63 2.9,-1.8 6.2,-2.69 9.92,-2.69 3.72,0 7.02,0.89 9.92,2.69 2.89,1.79 5.17,4.33 6.83,7.63 1.66,3.3 2.49,7.21 2.49,11.74zm-5.11 0c0,-3.72 -0.63,-6.86 -1.89,-9.42 -1.25,-2.56 -2.94,-4.49 -5.09,-5.81 -2.13,-1.31 -4.51,-1.97 -7.15,-1.97 -2.64,0 -5.03,0.66 -7.17,1.97 -2.13,1.31 -3.82,3.25 -5.08,5.81 -1.25,2.56 -1.87,5.7 -1.87,9.42 0,3.72 0.62,6.85 1.87,9.41 1.26,2.56 2.96,4.49 5.08,5.81 2.15,1.32 4.54,1.97 7.17,1.97 2.64,0 5.03,-0.65 7.15,-1.97 2.14,-1.31 3.84,-3.25 5.09,-5.81 1.26,-2.56 1.89,-5.7 1.89,-9.41zm48.55 -21.48l0 42.94 -5.11 0 -23.75 -33.72 -0.43 0 0 33.72 -5.28 0 0 -42.94 5.11 0 23.84 33.8 0.43 0 0 -33.8 5.19 0z"/>
   <path class="fil2" d="M243.85 171.54c-0.39,-1.36 -0.95,-2.56 -1.67,-3.61 -0.72,-1.06 -1.6,-1.96 -2.64,-2.68 -1.02,-0.75 -2.19,-1.31 -3.52,-1.7 -1.3,-0.39 -2.76,-0.59 -4.34,-0.59 -2.97,0 -5.58,0.73 -7.83,2.18 -2.24,1.45 -3.97,3.57 -5.22,6.35 -1.25,2.76 -1.87,6.13 -1.87,10.12 0,3.99 0.61,7.38 1.84,10.18 1.23,2.8 2.97,4.93 5.22,6.4 2.25,1.46 4.91,2.18 7.97,2.18 2.78,0 5.16,-0.48 7.13,-1.45 1.99,-0.99 3.5,-2.37 4.54,-4.17 1.06,-1.79 1.59,-3.91 1.59,-6.35l2.5 0.37 -14.98 0 0 -9.11 24.32 0 0 7.21c0,5.03 -1.07,9.35 -3.24,12.98 -2.15,3.59 -5.13,6.37 -8.91,8.33 -3.78,1.94 -8.12,2.91 -13,2.91 -5.45,0 -10.24,-1.18 -14.36,-3.55 -4.12,-2.39 -7.34,-5.77 -9.65,-10.15 -2.29,-4.4 -3.43,-9.62 -3.43,-15.66 0,-4.64 0.68,-8.78 2.04,-12.42 1.38,-3.65 3.31,-6.75 5.79,-9.28 2.48,-2.54 5.37,-4.46 8.66,-5.79 3.29,-1.32 6.86,-1.98 10.7,-1.98 3.29,0 6.36,0.48 9.19,1.43 2.84,0.93 5.35,2.25 7.55,3.97 2.22,1.72 4.02,3.76 5.42,6.12 1.4,2.35 2.3,4.94 2.7,7.78l-12.49 0zm41.72 39.59c-4.41,0 -8.22,-0.92 -11.44,-2.77 -3.2,-1.86 -5.67,-4.46 -7.41,-7.78 -1.74,-3.33 -2.61,-7.2 -2.61,-11.6 0,-4.43 0.87,-8.31 2.61,-11.63 1.74,-3.34 4.21,-5.93 7.41,-7.77 3.22,-1.87 7.03,-2.8 11.44,-2.8 4.41,0 8.21,0.93 11.41,2.8 3.22,1.85 5.7,4.43 7.44,7.77 1.74,3.32 2.61,7.2 2.61,11.63 0,4.4 -0.87,8.27 -2.61,11.6 -1.74,3.32 -4.22,5.91 -7.44,7.78 -3.2,1.85 -7,2.77 -11.41,2.77zm0.06 -9.22c2,0 3.68,-0.56 5.02,-1.68 1.34,-1.14 2.35,-2.69 3.04,-4.64 0.7,-1.96 1.05,-4.19 1.05,-6.68 0,-2.5 -0.35,-4.73 -1.05,-6.69 -0.68,-1.96 -1.69,-3.5 -3.04,-4.64 -1.34,-1.14 -3.02,-1.7 -5.02,-1.7 -2.02,0 -3.73,0.57 -5.11,1.7 -1.36,1.14 -2.39,2.69 -3.09,4.64 -0.68,1.96 -1.02,4.19 -1.02,6.69 0,2.5 0.34,4.72 1.02,6.68 0.7,1.96 1.73,3.5 3.09,4.64 1.38,1.11 3.09,1.68 5.11,1.68zm48.95 9.22c-4.41,0 -8.22,-0.92 -11.44,-2.77 -3.2,-1.86 -5.67,-4.46 -7.41,-7.78 -1.74,-3.33 -2.61,-7.2 -2.61,-11.6 0,-4.43 0.87,-8.31 2.61,-11.63 1.74,-3.34 4.21,-5.93 7.41,-7.77 3.22,-1.87 7.03,-2.8 11.44,-2.8 4.41,0 8.21,0.93 11.41,2.8 3.22,1.85 5.69,4.43 7.43,7.77 1.74,3.32 2.61,7.2 2.61,11.63 0,4.4 -0.87,8.27 -2.61,11.6 -1.74,3.32 -4.22,5.91 -7.43,7.78 -3.2,1.85 -7,2.77 -11.41,2.77zm0.06 -9.22c2.01,0 3.68,-0.56 5.03,-1.68 1.34,-1.14 2.35,-2.69 3.04,-4.64 0.7,-1.96 1.05,-4.19 1.05,-6.68 0,-2.5 -0.35,-4.73 -1.05,-6.69 -0.68,-1.96 -1.7,-3.5 -3.04,-4.64 -1.35,-1.14 -3.02,-1.7 -5.03,-1.7 -2.02,0 -3.72,0.57 -5.11,1.7 -1.36,1.14 -2.39,2.69 -3.09,4.64 -0.68,1.96 -1.02,4.19 -1.02,6.69 0,2.5 0.34,4.72 1.02,6.68 0.7,1.96 1.74,3.5 3.09,4.64 1.38,1.11 3.08,1.68 5.11,1.68zm48.9 25.39c-3.91,0 -7.27,-0.53 -10.07,-1.6 -2.78,-1.04 -5,-2.47 -6.64,-4.28 -1.65,-1.81 -2.72,-3.84 -3.2,-6.09l11.18 -1.48c0.34,0.86 0.88,1.66 1.62,2.41 0.74,0.74 1.71,1.35 2.92,1.79 1.23,0.46 2.72,0.7 4.48,0.7 2.63,0 4.8,-0.64 6.5,-1.9 1.72,-1.25 2.58,-3.35 2.58,-6.3l0 -7.86 -0.51 0c-0.53,1.2 -1.33,2.32 -2.39,3.39 -1.06,1.06 -2.42,1.93 -4.09,2.6 -1.67,0.67 -3.65,1 -5.96,1 -3.27,0 -6.25,-0.74 -8.94,-2.24 -2.67,-1.51 -4.8,-3.81 -6.39,-6.91 -1.57,-3.11 -2.35,-7.04 -2.35,-11.8 0,-4.87 0.8,-8.93 2.41,-12.19 1.61,-3.26 3.74,-5.7 6.41,-7.33 2.69,-1.62 5.63,-2.43 8.83,-2.43 2.44,0 4.48,0.41 6.13,1.23 1.65,0.8 2.97,1.81 3.98,3.02 1.02,1.19 1.8,2.37 2.35,3.52l0.45 0 0 -7.22 12 0 0 43.37c0,3.66 -0.91,6.71 -2.72,9.18 -1.81,2.46 -4.33,4.3 -7.55,5.54 -3.2,1.25 -6.87,1.87 -11.04,1.87zm0.26 -26.57c1.95,0 3.59,-0.48 4.94,-1.42 1.36,-0.97 2.4,-2.35 3.12,-4.14 0.74,-1.81 1.11,-3.97 1.11,-6.49 0,-2.52 -0.36,-4.69 -1.08,-6.54 -0.72,-1.87 -1.76,-3.31 -3.12,-4.33 -1.36,-1.03 -3.02,-1.54 -4.97,-1.54 -1.98,0 -3.66,0.53 -5.02,1.59 -1.36,1.05 -2.39,2.5 -3.09,4.37 -0.7,1.86 -1.05,4.02 -1.05,6.46 0,2.48 0.35,4.62 1.05,6.43 0.72,1.79 1.75,3.18 3.09,4.17 1.36,0.97 3.04,1.45 5.02,1.45zm42.77 -47.7l0 57.27 -12.09 0 0 -57.27 12.09 0zm29.55 58.1c-4.48,0 -8.34,-0.89 -11.58,-2.68 -3.21,-1.81 -5.69,-4.36 -7.43,-7.66 -1.74,-3.32 -2.61,-7.24 -2.61,-11.77 0,-4.42 0.87,-8.3 2.61,-11.63 1.74,-3.33 4.19,-5.94 7.35,-7.8 3.18,-1.87 6.91,-2.8 11.18,-2.8 2.88,0 5.56,0.46 8.04,1.37 2.5,0.9 4.67,2.25 6.52,4.06 1.87,1.81 3.33,4.09 4.37,6.82 1.04,2.72 1.56,5.91 1.56,9.56l0 3.27 -36.81 0 0 -7.38 25.43 0c0,-1.71 -0.38,-3.24 -1.13,-4.56 -0.76,-1.33 -1.81,-2.36 -3.15,-3.11 -1.33,-0.76 -2.87,-1.15 -4.63,-1.15 -1.83,0 -3.46,0.42 -4.88,1.26 -1.4,0.82 -2.5,1.93 -3.29,3.33 -0.8,1.38 -1.2,2.91 -1.22,4.61l0 7.02c0,2.13 0.4,3.96 1.19,5.51 0.81,1.54 1.96,2.74 3.43,3.58 1.48,0.83 3.23,1.26 5.25,1.26 1.34,0 2.57,-0.19 3.69,-0.56 1.12,-0.37 2.07,-0.93 2.87,-1.68 0.8,-0.75 1.4,-1.66 1.81,-2.74l11.18 0.72c-0.57,2.65 -1.73,4.96 -3.49,6.93 -1.74,1.96 -3.99,3.49 -6.75,4.59 -2.74,1.08 -5.91,1.62 -9.51,1.62zm46.62 -0.83l0 -57.27 22.93 0c4.41,0 8.17,0.83 11.26,2.49 3.11,1.64 5.47,3.93 7.1,6.85 1.65,2.91 2.47,6.26 2.47,10.07 0,3.8 -0.83,7.16 -2.5,10.07 -1.66,2.91 -4.07,5.17 -7.24,6.8 -3.14,1.62 -6.94,2.43 -11.41,2.43l-14.61 0 0 -9.7 12.63 0c2.36,0 4.31,-0.4 5.84,-1.2 1.55,-0.81 2.7,-1.94 3.46,-3.38 0.78,-1.46 1.17,-3.13 1.17,-5.01 0,-1.9 -0.39,-3.56 -1.17,-4.98 -0.76,-1.43 -1.91,-2.55 -3.46,-3.33 -1.55,-0.8 -3.52,-1.2 -5.9,-1.2l-8.29 0 0 47.37 -12.29 0zm63.61 -57.27l0 57.27 -12.09 0 0 -57.27 12.09 0zm22.11 58.08c-2.78,0 -5.26,-0.48 -7.44,-1.43 -2.18,-0.97 -3.9,-2.4 -5.17,-4.28 -1.25,-1.9 -1.87,-4.27 -1.87,-7.1 0,-2.38 0.44,-4.39 1.33,-6.01 0.89,-1.62 2.1,-2.93 3.63,-3.91 1.53,-0.99 3.27,-1.74 5.22,-2.24 1.97,-0.51 4.03,-0.86 6.19,-1.07 2.54,-0.26 4.58,-0.5 6.13,-0.73 1.56,-0.24 2.68,-0.59 3.38,-1.06 0.7,-0.47 1.05,-1.16 1.05,-2.07l0 -0.17c0,-1.77 -0.57,-3.14 -1.7,-4.11 -1.12,-0.97 -2.71,-1.45 -4.77,-1.45 -2.18,0 -3.91,0.47 -5.2,1.42 -1.29,0.94 -2.14,2.11 -2.55,3.52l-11.19 -0.89c0.57,-2.61 1.69,-4.86 3.35,-6.76 1.67,-1.93 3.81,-3.4 6.44,-4.42 2.65,-1.04 5.72,-1.57 9.2,-1.57 2.42,0 4.74,0.28 6.95,0.84 2.24,0.56 4.21,1.43 5.93,2.6 1.74,1.17 3.11,2.69 4.11,4.53 1,1.83 1.51,4.02 1.51,6.57l0 28.97 -11.46 0 0 -5.96 -0.34 0c-0.7,1.34 -1.64,2.52 -2.81,3.55 -1.18,1.01 -2.58,1.8 -4.23,2.38 -1.65,0.56 -3.55,0.84 -5.7,0.84zm3.46 -8.22c1.78,0 3.35,-0.34 4.71,-1.03 1.36,-0.71 2.43,-1.66 3.2,-2.85 0.78,-1.19 1.16,-2.54 1.16,-4.06l0 -4.56c-0.38,0.24 -0.9,0.46 -1.56,0.67 -0.65,0.19 -1.37,0.36 -2.19,0.53 -0.81,0.15 -1.63,0.29 -2.44,0.42 -0.81,0.11 -1.56,0.21 -2.21,0.31 -1.42,0.2 -2.66,0.53 -3.72,0.98 -1.06,0.44 -1.89,1.05 -2.47,1.81 -0.59,0.75 -0.88,1.68 -0.88,2.8 0,1.62 0.59,2.86 1.79,3.72 1.21,0.84 2.74,1.26 4.6,1.26zm36.37 23.52c-1.53,0 -2.97,-0.12 -4.31,-0.37 -1.33,-0.22 -2.43,-0.51 -3.29,-0.86l2.72 -8.89c1.42,0.43 2.7,0.66 3.83,0.7 1.16,0.04 2.15,-0.22 2.98,-0.78 0.85,-0.56 1.54,-1.51 2.07,-2.85l0.71 -1.82 -15.63 -44.18 12.71 0 9.02 31.54 0.45 0 9.11 -31.54 12.8 0 -16.94 47.59c-0.81,2.31 -1.92,4.32 -3.32,6.04 -1.38,1.74 -3.13,3.07 -5.25,4 -2.12,0.95 -4.67,1.43 -7.67,1.43z"/>
   <g>
   </g>
   <g style="clip-path:url(#id0)">
    <g>
     <path class="fil2" d="M75.96 64.96l89.39 50.64 -19.16 18.88 -70.22 -69.52zm-18.52 -4.09l82.05 80.53 -82.05 80.53c-2.16,-0.93 -3.99,-2.48 -5.24,-4.44 -1.25,-1.97 -1.88,-4.26 -1.79,-6.58l0 0.02 0 -139.04 -0.01 -0.44c0,-4.7 2.86,-8.75 6.96,-10.54l0.07 -0.04zm135.69 71.09c2.82,2.06 4.63,5.33 4.63,9.02l-0.01 0.43 0 -0.02c0.17,1.8 -0.13,3.61 -0.88,5.26 -0.75,1.65 -1.93,3.08 -3.4,4.15l-0.03 0.02 -19.16 10.69 -20.75 -20.12 20.76 -20.45 18.84 11.01zm-117.17 85.87l70.23 -69.52 19.16 18.87 -89.39 50.64z"/>
    </g>
   </g>
   <polygon class="fil1" points="50.41,220.14 200.26,220.14 200.26,62.67 50.41,62.67 "/>
  </g>
 </g>
</svg>
