<svg width="24" height="24" viewBox="0 0 24 24" fill="none" xmlns="http://www.w3.org/2000/svg">
<path d="M15 11V5.82999C15 5.29999 14.79 4.78999 14.41 4.41999L12.7 2.70999C12.6075 2.61728 12.4976 2.54373 12.3766 2.49355C12.2557 2.44337 12.126 2.41754 11.995 2.41754C11.864 2.41754 11.7343 2.44337 11.6134 2.49355C11.4924 2.54373 11.3825 2.61728 11.29 2.70999L9.59 4.40999C9.21 4.78999 9 5.29999 9 5.82999V6.99999H5C3.9 6.99999 3 7.89999 3 8.99999V19C3 20.1 3.9 21 5 21H19C20.1 21 21 20.1 21 19V13C21 11.9 20.1 11 19 11H15ZM7 19H5V17H7V19ZM7 15H5V13H7V15ZM7 11H5V8.99999H7V11ZM13 19H11V17H13V19ZM13 15H11V13H13V15ZM13 11H11V8.99999H13V11ZM13 6.99999H11V4.99999H13V6.99999ZM19 19H17V17H19V19ZM19 15H17V13H19V15Z" fill="white"/>
</svg>
