<svg width="20" height="20" viewBox="0 0 20 20" fill="none" xmlns="http://www.w3.org/2000/svg">
<path d="M10 2C10.1326 2 10.2598 2.05268 10.3536 2.14645C10.4473 2.24021 10.5 2.36739 10.5 2.5V3.5C10.5 3.63261 10.4473 3.75979 10.3536 3.85355C10.2598 3.94732 10.1326 4 10 4C9.8674 4 9.74023 3.94732 9.64646 3.85355C9.55269 3.75979 9.50001 3.63261 9.50001 3.5V2.5C9.50001 2.36739 9.55269 2.24021 9.64646 2.14645C9.74023 2.05268 9.8674 2 10 2ZM14 10C14 11.0609 13.5786 12.0783 12.8284 12.8284C12.0783 13.5786 11.0609 14 10 14C8.93915 14 7.92173 13.5786 7.17159 12.8284C6.42144 12.0783 6.00001 11.0609 6.00001 10C6.00001 8.93913 6.42144 7.92172 7.17159 7.17157C7.92173 6.42143 8.93915 6 10 6C11.0609 6 12.0783 6.42143 12.8284 7.17157C13.5786 7.92172 14 8.93913 14 10ZM17.5 10.5C17.6326 10.5 17.7598 10.4473 17.8536 10.3536C17.9473 10.2598 18 10.1326 18 10C18 9.86739 17.9473 9.74021 17.8536 9.64645C17.7598 9.55268 17.6326 9.5 17.5 9.5H16.5C16.3674 9.5 16.2402 9.55268 16.1465 9.64645C16.0527 9.74021 16 9.86739 16 10C16 10.1326 16.0527 10.2598 16.1465 10.3536C16.2402 10.4473 16.3674 10.5 16.5 10.5H17.5ZM10 16C10.1326 16 10.2598 16.0527 10.3536 16.1464C10.4473 16.2402 10.5 16.3674 10.5 16.5V17.5C10.5 17.6326 10.4473 17.7598 10.3536 17.8536C10.2598 17.9473 10.1326 18 10 18C9.8674 18 9.74023 17.9473 9.64646 17.8536C9.55269 17.7598 9.50001 17.6326 9.50001 17.5V16.5C9.50001 16.3674 9.55269 16.2402 9.64646 16.1464C9.74023 16.0527 9.8674 16 10 16ZM3.50001 10.5C3.63262 10.5 3.7598 10.4473 3.85357 10.3536C3.94733 10.2598 4.00001 10.1326 4.00001 10C4.00001 9.86739 3.94733 9.74021 3.85357 9.64645C3.7598 9.55268 3.63262 9.5 3.50001 9.5H2.46301C2.3304 9.5 2.20323 9.55268 2.10946 9.64645C2.01569 9.74021 1.96301 9.86739 1.96301 10C1.96301 10.1326 2.01569 10.2598 2.10946 10.3536C2.20323 10.4473 2.3304 10.5 2.46301 10.5H3.50001ZM4.14601 4.146C4.19246 4.09944 4.24763 4.06249 4.30838 4.03729C4.36912 4.01208 4.43425 3.99911 4.50001 3.99911C4.56578 3.99911 4.6309 4.01208 4.69165 4.03729C4.75239 4.06249 4.80757 4.09944 4.85401 4.146L5.85401 5.146C5.9479 5.23989 6.00064 5.36722 6.00064 5.5C6.00064 5.63278 5.9479 5.76011 5.85401 5.854C5.76013 5.94789 5.63279 6.00063 5.50001 6.00063C5.36724 6.00063 5.2399 5.94789 5.14601 5.854L4.14601 4.854C4.09945 4.80755 4.06251 4.75238 4.0373 4.69163C4.01209 4.63089 3.99912 4.56577 3.99912 4.5C3.99912 4.43423 4.01209 4.36911 4.0373 4.30837C4.06251 4.24762 4.09945 4.19245 4.14601 4.146ZM4.85401 15.854C4.76013 15.9479 4.63279 16.0006 4.50001 16.0006C4.36724 16.0006 4.2399 15.9479 4.14601 15.854C4.05213 15.7601 3.99938 15.6328 3.99938 15.5C3.99938 15.3672 4.05213 15.2399 4.14601 15.146L5.14601 14.146C5.2399 14.0521 5.36724 13.9994 5.50001 13.9994C5.63279 13.9994 5.76013 14.0521 5.85401 14.146C5.9479 14.2399 6.00064 14.3672 6.00064 14.5C6.00064 14.6328 5.9479 14.7601 5.85401 14.854L4.85401 15.854ZM15.854 4.146C15.8076 4.09944 15.7524 4.06249 15.6916 4.03729C15.6309 4.01208 15.5658 3.99911 15.5 3.99911C15.4342 3.99911 15.3691 4.01208 15.3084 4.03729C15.2476 4.06249 15.1925 4.09944 15.146 4.146L14.146 5.146C14.0521 5.23989 13.9994 5.36722 13.9994 5.5C13.9994 5.63278 14.0521 5.76011 14.146 5.854C14.2399 5.94789 14.3672 6.00063 14.5 6.00063C14.6328 6.00063 14.7601 5.94789 14.854 5.854L15.854 4.854C15.9006 4.80755 15.9375 4.75238 15.9627 4.69163C15.9879 4.63089 16.0009 4.56577 16.0009 4.5C16.0009 4.43423 15.9879 4.36911 15.9627 4.30837C15.9375 4.24762 15.9006 4.19245 15.854 4.146ZM15.146 15.854C15.2399 15.9479 15.3672 16.0006 15.5 16.0006C15.6328 16.0006 15.7601 15.9479 15.854 15.854C15.9479 15.7601 16.0006 15.6328 16.0006 15.5C16.0006 15.3672 15.9479 15.2399 15.854 15.146L14.854 14.146C14.7601 14.0521 14.6328 13.9994 14.5 13.9994C14.3672 13.9994 14.2399 14.0521 14.146 14.146C14.0521 14.2399 13.9994 14.3672 13.9994 14.5C13.9994 14.6328 14.0521 14.7601 14.146 14.854L15.146 15.854Z" fill="black"/>
</svg>
