<svg width="24" height="24" viewBox="0 0 24 24" fill="none" xmlns="http://www.w3.org/2000/svg">
<path d="M13.0015 7.009C16.17 7.009 17.9675 9.106 18.229 11.639H18.309C20.348 11.639 22.001 13.288 22.001 15.3215C22.001 17.355 20.348 19.004 18.309 19.004H7.694C5.655 19.004 4.002 17.3555 4.002 15.3215C4.002 13.2875 5.6555 11.639 7.6945 11.639H7.7745C8.0375 9.0895 9.833 7.009 13.0015 7.009ZM10 4C10.769 3.9997 11.5263 4.18747 12.2061 4.54697C12.8859 4.90646 13.4674 5.42675 13.9 6.0625C13.6013 6.02664 13.3008 6.00877 13 6.009C9.961 6.009 7.762 7.728 7.02 10.3165L6.98 10.461L6.9225 10.6985L6.7155 10.737C5.92848 10.9036 5.19752 11.2697 4.5929 11.8004C3.98827 12.331 3.5303 13.0083 3.263 13.767C2.72415 13.3465 2.33001 12.7683 2.13559 12.1131C1.94116 11.4579 1.95616 10.7583 2.17848 10.1119C2.4008 9.46563 2.81935 8.90485 3.37572 8.50787C3.93209 8.11088 4.59852 7.8975 5.282 7.8975H5.353C5.54626 6.80542 6.1179 5.81627 6.96765 5.10358C7.81739 4.39089 8.89095 4.00018 10 4Z" fill="black"/>
</svg>
