<svg width="24" height="24" viewBox="0 0 24 24" fill="none" xmlns="http://www.w3.org/2000/svg">
<path d="M6.5 19C6.15 19 5.854 18.879 5.612 18.637C5.37 18.395 5.24933 18.0993 5.25 17.75C5.25067 17.4007 5.37167 17.1047 5.613 16.862C5.85433 16.6193 6.15 16.4987 6.5 16.5C6.85 16.5013 7.146 16.6223 7.388 16.863C7.63 17.1037 7.75067 17.3993 7.75 17.75C7.74933 18.1007 7.62833 18.3967 7.387 18.638C7.14567 18.8793 6.85 19 6.5 19ZM9.5 22C9.15 22 8.854 21.879 8.612 21.637C8.37 21.395 8.24933 21.0993 8.25 20.75C8.25067 20.4007 8.37167 20.1047 8.613 19.862C8.85433 19.6193 9.15 19.4987 9.5 19.5C9.85 19.5013 10.146 19.6223 10.388 19.863C10.63 20.1037 10.7507 20.3993 10.75 20.75C10.7493 21.1007 10.6283 21.3967 10.387 21.638C10.1457 21.8793 9.85 22 9.5 22ZM12.5 19C12.15 19 11.854 18.879 11.612 18.637C11.37 18.395 11.2493 18.0993 11.25 17.75C11.2507 17.4007 11.3717 17.1047 11.613 16.862C11.8543 16.6193 12.15 16.4987 12.5 16.5C12.85 16.5013 13.146 16.6223 13.388 16.863C13.63 17.1037 13.7507 17.3993 13.75 17.75C13.7493 18.1007 13.6283 18.3967 13.387 18.638C13.1457 18.8793 12.85 19 12.5 19ZM18.5 19C18.15 19 17.854 18.879 17.612 18.637C17.37 18.395 17.2493 18.0993 17.25 17.75C17.2507 17.4007 17.3717 17.1047 17.613 16.862C17.8543 16.6193 18.15 16.4987 18.5 16.5C18.85 16.5013 19.146 16.6223 19.388 16.863C19.63 17.1037 19.7507 17.3993 19.75 17.75C19.7493 18.1007 19.6283 18.3967 19.387 18.638C19.1457 18.8793 18.85 19 18.5 19ZM15.5 22C15.15 22 14.854 21.879 14.612 21.637C14.37 21.395 14.2493 21.0993 14.25 20.75C14.2507 20.4007 14.3717 20.1047 14.613 19.862C14.8543 19.6193 15.15 19.4987 15.5 19.5C15.85 19.5013 16.146 19.6223 16.388 19.863C16.63 20.1037 16.7507 20.3993 16.75 20.75C16.7493 21.1007 16.6283 21.3967 16.387 21.638C16.1457 21.8793 15.85 22 15.5 22ZM7.5 15C5.98333 15 4.68767 14.4627 3.613 13.388C2.53833 12.3133 2.00067 11.0173 2 9.5C2 8.11667 2.45833 6.90833 3.375 5.875C4.29167 4.84167 5.425 4.23333 6.775 4.05C7.30833 3.1 8.03767 2.354 8.963 1.812C9.88833 1.27 10.9007 0.999335 12 1C13.5 1 14.8043 1.47933 15.913 2.438C17.0217 3.39667 17.6923 4.59233 17.925 6.025C19.075 6.125 20.0417 6.6 20.825 7.45C21.6083 8.3 22 9.31667 22 10.5C22 11.75 21.5627 12.8127 20.688 13.688C19.8133 14.5633 18.7507 15.0007 17.5 15H7.5Z" fill="black"/>
</svg>
