<svg width="24" height="24" viewBox="0 0 24 24" fill="none" xmlns="http://www.w3.org/2000/svg">
<path d="M13.678 12.6975C13.847 12.8357 13.9583 13.0321 13.9899 13.2481C14.0215 13.4641 13.9713 13.6841 13.849 13.865L13.8015 13.929L12.7195 15.2515H15.1225C15.8405 15.2515 16.2435 16.0625 15.8375 16.6315L15.7945 16.687L12.044 21.1855C11.9002 21.3596 11.6945 21.4714 11.4702 21.4974C11.2458 21.5234 11.0201 21.4616 10.8402 21.325C10.6604 21.1884 10.5403 20.9876 10.5051 20.7645C10.4699 20.5414 10.5224 20.3133 10.6515 20.128L10.7 20.0645L13.253 17.0015H10.874C10.16 17.0015 9.75601 16.1985 10.154 15.629L10.197 15.573L12.447 12.821C12.5939 12.6414 12.8061 12.5275 13.0369 12.5044C13.2678 12.4812 13.4984 12.5507 13.678 12.6975ZM13 5.009C16.169 5.009 17.966 7.106 18.2275 9.639H18.3075C20.3465 9.639 21.9995 11.288 21.9995 13.3215C21.9995 15.355 20.3465 17.004 18.3075 17.004H16.776C17.418 15.786 16.569 14.2515 15.123 14.2515H14.776L14.8095 14.186C15.1795 13.398 14.9835 12.473 14.3115 11.9235C14.1209 11.7676 13.9014 11.6509 13.6656 11.5798C13.4298 11.5088 13.1824 11.4849 12.9374 11.5095C12.6924 11.5341 12.4546 11.6068 12.2377 11.7233C12.0207 11.8398 11.8288 11.9978 11.673 12.1885L9.42301 14.94L9.35751 15.0255L9.30651 15.102C9.12487 15.3831 9.02136 15.7075 9.00659 16.0419C8.99183 16.3762 9.06635 16.7085 9.22251 17.0045H7.69251C5.65401 17.0045 4.00101 15.3555 4.00101 13.3215C4.00101 11.3285 5.58851 9.705 7.57101 9.641L7.77301 9.639C8.03551 7.0895 9.83101 5.009 13 5.009ZM9.99851 2C10.7654 1.99959 11.5209 2.18627 12.1994 2.54384C12.8778 2.90142 13.4589 3.4191 13.892 4.052C13.5953 4.01688 13.2968 3.99951 12.998 4C9.95901 4 7.76001 5.72 7.01801 8.31L6.97801 8.455L6.92051 8.693L6.71401 8.731C5.92615 8.89778 5.19452 9.26462 4.58957 9.79619C3.98461 10.3278 3.52673 11.0061 3.26001 11.766C2.7215 11.3454 2.3277 10.7672 2.13355 10.112C1.9394 9.45684 1.95459 8.75742 2.17699 8.11131C2.39939 7.4652 2.81791 6.90461 3.37417 6.50776C3.93043 6.1109 4.59669 5.89756 5.28001 5.8975H5.35101C5.54427 4.80542 6.11591 3.81627 6.96566 3.10358C7.8154 2.39089 8.88946 2.00018 9.99851 2Z" fill="white"/>
</svg>
