<svg width="20" height="20" viewBox="0 0 20 20" fill="none" xmlns="http://www.w3.org/2000/svg">
<path d="M6.073 5.81201C6.24439 4.96191 6.72546 4.20577 7.42285 3.69032C8.12025 3.17486 8.98425 2.93684 9.84723 3.02243C10.7102 3.10801 11.5106 3.51111 12.0932 4.15351C12.6758 4.79591 12.9989 5.6318 13 6.49901C13.0001 6.95872 12.9097 7.41396 12.7339 7.83871C12.558 8.26347 12.3002 8.64942 11.9752 8.97453C11.6502 9.29964 11.2643 9.55754 10.8396 9.7335C10.4149 9.90945 9.95971 10 9.5 10H2.75C2.55109 10 2.36032 9.92099 2.21967 9.78034C2.07902 9.63969 2 9.44893 2 9.25001C2 9.0511 2.07902 8.86034 2.21967 8.71968C2.36032 8.57903 2.55109 8.50001 2.75 8.50001H9.5C10.0195 8.48384 10.5123 8.26618 10.8742 7.89308C11.236 7.51998 11.4385 7.02073 11.4388 6.50098C11.439 5.98124 11.237 5.48178 10.8756 5.10832C10.5141 4.73486 10.0215 4.5167 9.502 4.50001C8.55 4.50001 7.73 5.17201 7.544 6.10601L7.485 6.39701C7.44033 6.58626 7.32391 6.75075 7.16029 6.85581C6.99667 6.96087 6.79864 6.99828 6.60797 6.96014C6.41731 6.92201 6.2489 6.81132 6.13827 6.65141C6.02765 6.4915 5.98345 6.29488 6.015 6.10301L6.073 5.81201ZM13.36 9.35401C13.6072 8.86116 14.0134 8.46609 14.5129 8.2327C15.0124 7.9993 15.5761 7.94123 16.1127 8.06787C16.6493 8.19451 17.1276 8.49845 17.47 8.93056C17.8125 9.36266 17.9992 9.89765 18 10.449V10.5C18 11.1631 17.7366 11.7989 17.2678 12.2678C16.7989 12.7366 16.163 13 15.5 13H14.584C14.7261 13.3606 14.778 13.7504 14.735 14.1356C14.692 14.5208 14.5556 14.8896 14.3375 15.21C14.1194 15.5304 13.8264 15.7927 13.4838 15.9739C13.1412 16.1552 12.7596 16.25 12.372 16.25C11.9806 16.2504 11.5951 16.1542 11.2497 15.97C10.9044 15.7858 10.6097 15.5193 10.392 15.194L10.377 15.17C10.3188 15.0883 10.2775 14.9957 10.2557 14.8978C10.2339 14.7998 10.232 14.6985 10.25 14.5998C10.2681 14.5011 10.3058 14.407 10.3608 14.3232C10.4159 14.2393 10.4872 14.1673 10.5706 14.1115C10.654 14.0557 10.7477 14.0172 10.8463 13.9982C10.9448 13.9793 11.0461 13.9803 11.1443 14.0013C11.2424 14.0222 11.3353 14.0626 11.4176 14.1201C11.4998 14.1776 11.5697 14.251 11.623 14.336L11.639 14.36C11.802 14.603 12.078 14.75 12.372 14.75C12.4869 14.7502 12.6007 14.7278 12.707 14.684C12.8132 14.6402 12.9098 14.5759 12.9912 14.4948C13.0725 14.4137 13.1372 14.3173 13.1813 14.2112C13.2255 14.1052 13.2483 13.9914 13.2485 13.8765C13.2487 13.7616 13.2263 13.6478 13.1825 13.5416C13.1387 13.4353 13.0744 13.3387 12.9933 13.2574C12.9122 13.176 12.8158 13.1113 12.7097 13.0672C12.6036 13.023 12.4899 13.0002 12.375 13H2.75C2.55109 13 2.36032 12.921 2.21967 12.7803C2.07902 12.6397 2 12.4489 2 12.25C2 12.0511 2.07902 11.8603 2.21967 11.7197C2.36032 11.579 2.55109 11.5 2.75 11.5H15.5C15.7652 11.5 16.0196 11.3947 16.2071 11.2071C16.3946 11.0196 16.5 10.7652 16.5 10.5V10.45C16.4997 10.2362 16.4273 10.0288 16.2946 9.86129C16.1618 9.69374 15.9765 9.57587 15.7684 9.52672C15.5604 9.47758 15.3418 9.50003 15.1482 9.59045C14.9545 9.68087 14.7969 9.83398 14.701 10.025L14.671 10.085C14.6275 10.1739 14.5668 10.2533 14.4924 10.3186C14.4181 10.384 14.3315 10.434 14.2378 10.4657C14.144 10.4974 14.0449 10.5102 13.9461 10.5035C13.8474 10.4967 13.7509 10.4705 13.6624 10.4262C13.5738 10.382 13.4949 10.3207 13.4301 10.2459C13.3654 10.171 13.3161 10.0841 13.2851 9.99006C13.2541 9.89605 13.242 9.79684 13.2496 9.69815C13.2571 9.59945 13.2841 9.50323 13.329 9.41501L13.36 9.35401Z" fill="black"/>
</svg>
