<?xml version="1.0" encoding="UTF-8"?>
<!DOCTYPE svg PUBLIC "-//W3C//DTD SVG 1.1//EN" "http://www.w3.org/Graphics/SVG/1.1/DTD/svg11.dtd">
<!-- Creator: CorelDRAW -->
<svg xmlns="http://www.w3.org/2000/svg" xml:space="preserve" width="1.69291in" height="1.69291in" version="1.1" style="shape-rendering:geometricPrecision; text-rendering:geometricPrecision; image-rendering:optimizeQuality; fill-rule:evenodd; clip-rule:evenodd"
viewBox="0 0 1692.91 1692.91"
 xmlns:xlink="http://www.w3.org/1999/xlink"
 xmlns:xodm="http://www.corel.com/coreldraw/odm/2003">
 <defs>
  <style type="text/css">
   <![CDATA[
    .fil0 {fill:#FFE814}
   ]]>
  </style>
 </defs>
 <g id="Layer_x0020_1">
  <metadata id="CorelCorpID_0Corel-Layer"/>
  <g id="_2555506759168">
   <path class="fil0" d="M784.04 1477.12c0,-19.9 7.59,-34.38 17.93,-44.81 24.81,-25.01 63.49,-26.09 88.56,-0.96 40.14,40.21 11.79,106.66 -44,108.21 -34.21,0.95 -62.5,-27.49 -62.5,-62.44zm224.83 -147.69c0,-49.94 75.56,-53.7 75.56,0 0,50.52 -75.56,45.17 -75.56,0zm-399.9 0c0,-43.83 56.73,-51.9 71.64,-16.36 5.91,14.09 1.98,32.37 -7.49,41.86 -22.09,22.13 -64.15,7.52 -64.15,-25.5zm-280.11 -35.07c0,-37.62 28.55,-64.62 55.28,-64.62 22.11,0 36.53,0.89 53.05,18.86 23.44,25.5 21.09,61.81 -0.97,86.85 -34.2,38.82 -107.36,15.21 -107.36,-41.09zm967.5 -64.62l11.06 0c48.33,0 79.2,66.39 38.29,106.67 -5.45,5.37 -10.85,9.43 -18.74,12.61 -17.63,7.11 -31.37,8.16 -49.05,0.73 -8.06,-3.39 -12.77,-6.27 -19.15,-12.2 -11.82,-10.98 -17.79,-25.41 -19.09,-41.83 -0.53,-6.63 2.34,-18.24 4.33,-24.28 3.26,-9.89 4.79,-13.31 11.08,-20.29 9.84,-10.93 25.58,-21.42 41.28,-21.42zm36.86 -151.38c-51.44,0 -46.31,-75.59 -0.47,-72.93 9.95,0.57 20.4,5.38 25.71,10.72 14.95,15.05 14.26,38.13 1.06,51.64 -5.11,5.23 -16.56,10.57 -26.3,10.57zm-973.03 -73.85c47.17,0 51.01,73.85 0,73.85 -41.32,0 -49.08,-55.26 -14.48,-69.89 1.74,-0.74 13.06,-3.96 14.48,-3.96zm492.04 288c-37.41,0 -71.44,-4.56 -101.83,-10.6 -77.59,-15.43 -161.17,-63.54 -217.44,-120.01 -111.45,-111.83 -152.75,-260.08 -121.34,-417.86 16.48,-82.81 72.32,-177.2 134.16,-229.3 5.7,-4.8 8.41,-7.88 14.7,-12.96 26.77,-21.58 36.28,-27.35 65.66,-44.99 45.23,-27.17 112.92,-50.76 165.76,-57.33l52.94 -4.28 51.47 3.95c31.97,3.63 59.74,10.82 89.76,20.85 49.56,16.55 103.55,46.55 143.16,79.97l30.3 26.88c105.91,106.11 158.32,264.8 122.11,413.09 -13.8,56.52 -36.06,108 -67.83,155.43 -23.8,35.52 -28.97,36.37 -49.83,62.7 -7.17,9.05 -50.2,43.7 -59.78,50.89 -19.27,14.44 -33.73,20.74 -51.45,31.53 -47.57,28.98 -130.84,52.05 -200.52,52.05zm-700.29 -452.31c0,-52.57 66.24,-84.27 105.59,-44.85 31.26,31.31 19.39,86.32 -17.85,101.36 -51.22,20.69 -87.74,-19.96 -87.74,-56.51zm1326.86 -62.77c40.29,0 74.69,41.08 57.91,85.7 -13.48,35.86 -65.84,55.15 -99.9,22.83 -10.3,-9.77 -19.7,-26.69 -19.44,-43.61 0.31,-20.75 5.96,-34.46 16.69,-45.14 11.11,-11.04 28.67,-19.78 44.75,-19.78zm-1155.48 -131.08c0,-49.96 73.72,-53.33 73.72,0 0,19.62 -18.3,34.78 -36.88,34.66 -21.09,-0.14 -36.84,-20.31 -36.84,-34.66zm1009.89 35.08c-32.39,0 -48.62,-40.99 -26.28,-63.25 34.78,-34.64 84.97,18.52 51.72,51.82 -4.16,4.17 -18.2,11.43 -25.45,11.43zm-1004.35 -288c0,-83.22 125.31,-82.7 125.31,0 0,43.8 -46.91,72.94 -87.22,55.99 -21.67,-9.11 -38.09,-31.7 -38.09,-55.99zm971.18 -62.77c37.11,0 64.5,29.09 64.5,62.77 0,66.76 -93.41,83.35 -118.77,24.83 -9.93,-22.91 -6.1,-51.19 10.44,-68.75 8.5,-9.03 26.78,-18.85 43.83,-18.85zm-291.17 27.69c0,-12.3 9.99,-26.67 21.56,-31.94 46.7,-21.3 75.8,48.86 33.47,66.76 -31.09,13.14 -55.02,-11.14 -55.02,-34.81zm-399.9 0c0,-39.84 58.11,-47.05 71.97,-13.01 5.94,14.58 1.52,32.45 -8.96,41.07 -24.85,20.45 -63.02,8.12 -63.02,-28.06zm235.88 -206.77c58.46,0 84.22,68.41 47.54,104.85 -46.51,46.2 -128.23,1.92 -103.13,-66.39 3.05,-8.3 6.97,-12.89 12.71,-18.65 10.19,-10.25 23.26,-19.81 42.88,-19.81zm-256.15 84.92c-4.74,-1.27 -25.32,-18.76 -32.06,-23.27 -11.01,-7.37 -22.94,-14.29 -35.59,-19.72 -45.41,-19.48 -71.93,-21.62 -122.16,-21.62 -76.59,0 -149.44,46.07 -192.73,106.01 -50.35,69.72 -58.06,162.22 -22.96,241.15 5.91,13.29 12.43,24.96 20.85,36.34 4.87,6.58 8.15,9.87 13.17,16.34 4.95,6.38 9.86,9.4 13.97,15.55 -25.69,0 -52.02,7.39 -74,16.33l-40.38 20.46c-5.69,3.42 -13.41,8.6 -18.6,12.76 -69.62,55.78 -105.9,144.08 -97.11,232.64 0.8,8.06 2.75,18.2 4.48,26.89 12.08,60.65 47.94,111.7 94.51,149.01 24.09,19.3 50.42,32.03 80.67,41.04 16.3,4.86 34.96,8.15 52.28,6.7 -7.74,11.57 -18.54,21.37 -26.17,32.86 -7.61,11.46 -16.33,24.83 -21.5,37.55 -14.97,36.91 -22.37,66.26 -22.37,112.36 0,67.75 29.27,124.4 74.17,169.39 67.09,67.21 167.63,89.22 258.69,58.85 15.43,-5.14 27.32,-10.32 40.65,-18.35l35.06 -23.96c6,-5.09 9.06,-12.08 17.12,-14.23 0,128.82 118.76,245.54 246.94,245.54 63.22,0 126.29,-16.4 174.53,-57.78 28.11,-24.12 53.27,-53.48 69.38,-87.42 11.59,-24.43 25.15,-65.46 25.15,-100.34 7.3,1.95 25.18,20.19 33.18,25.84 56.76,40.15 130.17,53.09 198.27,38.02 8.06,-1.78 17.31,-4.33 24.47,-6.87 60.97,-21.67 111.35,-65.31 141.76,-121.98 42.66,-79.48 35.51,-183.44 -15.44,-256.99 -4.36,-6.29 -7.87,-10.89 -12.57,-16.95 -4.92,-6.35 -9.87,-9.35 -13.99,-15.52 43.51,0 82.59,-14.18 113.18,-34.3 106.43,-70.02 147.8,-198.82 98.51,-319.92 -16.43,-40.38 -43.97,-75.48 -77.95,-100.98 -36.04,-27.04 -83.59,-50.63 -130.06,-50.63 4.83,-9.15 6.23,-8.06 12.36,-15.32 60.97,-72.15 69.88,-175.16 30.42,-260.15 -35.54,-76.54 -125.71,-139.91 -212.32,-139.91 -46.78,0 -80.34,2.85 -121.01,20.93 -20.09,8.93 -36.19,18.72 -53.32,31.51 -6.38,4.76 -9.18,9.81 -15.48,14.03 0,-52.67 -20.55,-95.39 -47.14,-133.7 -41.28,-59.48 -125.3,-104.46 -197.96,-104.46 -48.66,0 -82.89,3.33 -124.7,22.76 -82.14,38.15 -146.19,118.51 -146.19,213.54z"/>
   <path class="fil0" d="M850.38 1179.89c-85.78,0 -176.5,-34.98 -234.51,-93.68 -3.61,-3.66 -6.8,-6.36 -10.04,-10.25 -4.1,-4.91 -4.59,-6.24 -9.31,-10.98 -16.22,-16.33 -40.52,-53.61 -49.15,-74.46 -26.1,-63.1 -32.39,-86.03 -32.39,-159.55 0,-64.4 24.87,-131.94 62.12,-181.46 13.03,-17.33 23.7,-29.13 38.78,-44.23 14.39,-14.41 27.09,-25.3 44.3,-36.85 95.34,-63.98 217.48,-78.34 324.13,-28.54 16.44,7.68 38.48,19.63 52.76,30.22l45.09 37.9c4.12,4.52 4.74,6.61 9.14,11.15 4.21,4.34 6.22,5.87 9.74,10.54 9.88,13.09 26.56,34.81 33.77,49.24l14.11 28.33c40.71,84.21 37,189.07 0.54,273.77 -31.76,73.78 -92.58,133.79 -163.92,168.1 -38.06,18.31 -90.78,30.75 -135.17,30.75zm-403.59 -341.54c0,65 12.94,116.07 31.33,162.46 2.45,6.19 4.82,11.02 7.34,16.65l46.09 75.68c3.17,4.15 7.02,9.13 10.67,13.31 26.67,30.56 56.81,58.59 91.96,79.57 22.83,13.63 40.34,23.11 65.37,32.36 80.45,29.73 163.78,35.28 247.78,14.31 12.98,-3.23 24.97,-6.56 36.81,-11.12 19.43,-7.48 47.47,-18.75 64.18,-29.85 22.59,-15.01 35.37,-21.93 55.96,-39.93 24.65,-21.56 49.82,-46.55 68.25,-73.78 13.36,-19.75 24.6,-38.61 35.39,-60.55 42.07,-85.56 47.78,-176.72 27.79,-269.74 -2.35,-10.96 -6.71,-27.24 -10.67,-37.31 -5.09,-12.98 -9.33,-22.73 -14.51,-35.31 -8.36,-20.3 -31.92,-58.36 -45.78,-75.98 -2.61,-3.33 -3.49,-3.83 -6.04,-6.87 -11.83,-14.11 -27.82,-33.35 -42.18,-44.52 -5.39,-4.19 -7.18,-6.6 -12.89,-11.08 -5.33,-4.18 -7.47,-6.6 -13.14,-10.83l-45.55 -30.06c-90.39,-53.69 -229.41,-70.52 -332.25,-29.77 -13.01,5.15 -23.89,8.43 -35.58,14.2l-46.42 25.5c-46.95,31.65 -80.72,59.32 -113.54,107.8l-26.93 45.02c-27.35,49.19 -43.44,123.07 -43.44,179.86z"/>
   <path class="fil0" d="M831.95 633.44l5.53 125.53c-4.97,0.42 -5.01,0.87 -9.21,1.85 -4.97,-10.37 -15.44,-62.02 -24.65,-87.93 -3.91,-10.99 -7.26,-17.26 -11.43,-27.32 -3.97,-9.57 -7.03,-16.29 -11.21,-25.7 -11.67,-26.3 -22.36,-53.6 -35.64,-78.75 -5.22,0.43 -12.58,3.61 -16.59,5.54l16.81 58.85c6.07,18.84 10.53,39 17.04,58.61 6.69,20.15 14.66,35.13 23.27,52.39 4.14,8.3 7.88,15.79 12.28,24.61l9.01 18.67c3.06,7.06 1.83,-1.63 2.67,8.41 -9.43,0.79 -2.5,1.4 -11.06,3.69 -1.73,-6.49 -11.19,-18.66 -15.48,-25.1 -36.39,-54.68 -53.78,-67.36 -95.55,-109.2l-41.93 -41.07c-4.75,1.27 -10.38,5.79 -12.9,9.23 4.07,15.26 98.74,128.87 110.12,138.91 12.04,10.61 34.88,28.27 42.83,40.17 -2.58,2.98 -5.14,5.89 -7.37,9.23l-46.85 -32.45c-16.4,-11.96 -33.36,-20.98 -51.46,-29.68l-109.93 -52.33 -7.43 14.74c8.42,4.46 15.59,9.79 23.65,15.17l74.08 47.63c46.01,30.49 69.37,30.83 108.73,51.7 -1.01,4.34 -1.72,5.45 -1.84,11.07 -36.85,-8.6 -69.08,-19.1 -110.01,-24.56 -38.26,-5.11 -83.72,-9 -124.04,-12.36 -2.27,4.74 -3.69,11.25 -3.69,18.46 17.33,0 93.4,20.77 113.48,24.78 20.46,4.09 38.76,5.81 60.02,8.19 9.96,1.11 24.36,1.35 33.01,2 9.51,0.73 27.54,-1.69 27.54,7.5 0,8.71 -19.52,6.84 -27.31,7.72 -71.7,8.05 -82.08,13.41 -148.5,28.47 -18.3,4.15 -39.91,12.13 -58.24,13.66 0.59,7.12 1.84,7.27 1.84,16.61 28.29,0 126.56,-14.12 153.74,-19.53 28.77,-5.72 53.71,-16.29 82.15,-22.93 1.01,4.35 1.72,5.45 1.84,11.08 -20.11,4.69 -73.07,33.88 -94.35,47.64 -35.18,22.74 -73.8,53.06 -110.21,72.36 1.5,6.43 4.26,10.11 7.37,14.77 12.33,-2.88 66.55,-31.93 81.98,-39.72 50.44,-25.43 55.74,-29.46 99.65,-62.63 8.1,-6.12 16.37,-13.2 24.76,-17.65l5.53 7.39 -8.83 11.47c-28.39,28 -44.2,44.56 -68.57,77.15l-53.97 71.47c-6.44,8.7 -12.98,15.2 -17.9,24.53 14.45,19.76 20.8,2.23 33.63,-10.62 7.21,-7.22 13.07,-13.09 20.27,-20.31l40.08 -42.92c12.98,-17.04 18.58,-18.67 36.86,-46.15 4.4,-6.61 31.45,-43.4 33.17,-49.85 6.26,0.52 6.75,1.41 11.06,3.69l-11.69 25.22c-4.35,9.39 -8.77,16.49 -12.79,25.95 -2.54,5.98 -3.19,7.15 -5.9,12.55 -17.09,33.93 -31.48,93.12 -42.29,131.17 -9.8,34.48 -11.61,25.39 8.17,35.87 12.41,-25.89 22.09,-55.3 35,-81.25 13.06,-26.27 25.23,-54.67 32.46,-83.78l11.74 -47.31c1.4,-6.23 0.84,-12.89 7.41,-12.89 9.9,0 4.07,15.57 3.7,24.02 -0.4,8.98 -1.25,21.12 -2.63,30.58l0.83 124.43c-0.08,21.5 3.63,42.88 3.63,62.82 12.92,0 18.78,3.61 18.58,-12.77 -0.24,-18.92 2.55,-38.96 3.54,-57.37l1.83 -88.62c0,-30.45 -5.53,-54.25 -5.53,-83.08 15.86,0 11.87,8.91 16.2,28.08 7.94,35.15 13.57,56.02 27.26,89.01l35.77 80.47c4.52,9.11 8.21,18.76 12.92,27.67 5.07,-2.43 11.03,-2.87 16.59,-5.54 -3.48,-7.28 -6.6,-20.15 -8.81,-28.09 -13.91,-50.1 -28.57,-97.65 -48.06,-145.7 -6.86,-16.91 -20.3,-36.44 -24.22,-53.28l7.32 -3.79c10.83,8.1 38.37,59.24 50.37,73.38 3.65,4.3 5.59,6.79 9.2,11.09l20.15 22.27c3.76,3.81 6.35,6.3 10.17,10.12l25.57 26.08c0.26,0.28 0.63,0.69 0.89,0.96 11.48,11.87 22.89,27.88 36.66,37.12 6.91,-1.85 9.6,-5.78 14.74,-9.23 -4.35,-8.24 -11.13,-16.11 -16.83,-23.75 -16.49,-22.07 -78.88,-108.06 -102.67,-127.92 -11.78,-9.83 -22.96,-20 -31.61,-32.94 2.3,-2.65 -0.72,1.28 2.52,-3.02 1.62,-2.15 1.81,-2.57 3.01,-4.37 7.84,4.16 16.48,11.2 23.53,17.04l99.94 62.34c9.06,4.54 18.58,8.41 27.67,12.9 13.9,6.85 40.69,22.47 55.26,25.87 4.67,-3.43 7.19,-6.74 7.37,-14.77 -11.33,-2.64 -112.41,-75.53 -148.63,-92.94 -5.34,-2.57 -8.84,-3.54 -14.18,-6.11 -11.76,-5.66 -29.63,-16.27 -41.75,-19.1l2.12 -11.02c38.97,9.09 76.55,25.39 119.67,29.31 34.09,3.11 67.19,6.11 100.9,11.6 4.26,0.7 11.65,3.43 15.15,-0.15 2.68,-2.74 1.65,-1.8 2.15,-7.44 0.01,-0.15 0.04,-4.39 0.04,-4.5 -0.3,-6.33 -18.4,-7.57 -28.46,-10.07 -10.3,-2.56 -18.02,-4.09 -28.07,-6.96 -37.99,-10.83 -74.87,-21.3 -115.48,-24.62 -10.83,-0.89 -21.23,-1.22 -32.23,-2.78 -12.4,-1.76 -22.6,-1.13 -30.27,-2.91 0,-12.89 1.36,-12.4 23.96,-12.93 11.01,-0.26 25.32,-2.35 35.29,-3.41 23.23,-2.49 46.05,-4.25 68.69,-8.73l92.85 -21.45c18.52,-3.93 16.4,1.46 11.42,-19.94l-122.2 12.35c-20.92,3.13 -38.83,5.19 -57.63,10.57 -14.06,4.02 -40.53,12.15 -56.06,12.15 -0.41,-4.98 -0.86,-5.02 -1.84,-9.23 43.04,-20.69 59.71,-22.48 108.63,-51.8l97.77 -62.67c-1.25,-5.4 -3.22,-8.55 -5.53,-12.93 -13.83,1.15 -94.17,43.6 -110.04,50.38 -28.42,12.15 -50.35,28.32 -75.06,44.8 -7.28,4.86 -16.78,13.39 -24.98,15.59l-6.56 -6.35c-0.17,-0.2 -0.52,-0.7 -0.81,-1.03 5.42,-8.1 13.37,-12.32 20.72,-19.85l22.12 -20.3c7.2,-7.23 13.05,-13.11 20.27,-20.31 8.14,-8.09 12.54,-14.07 19.57,-22.86 9.42,-11.77 65.45,-83.15 72.11,-95.76 -6.02,-4.04 -5.73,-7.31 -12.9,-9.23 -10.61,7.12 -102.95,100.4 -114.63,117.78l-36.24 50.52c-4.88,7.11 1.09,4.19 -6.02,5.14 -19.43,2.6 9.48,-41.08 16.77,-53.52 8.93,-15.26 17.56,-35.79 22.61,-53.05 5.39,-18.44 10.77,-38.15 16.38,-57.43 2.69,-9.26 5.31,-18.5 8.2,-28.71 2.8,-9.91 7.36,-20.88 8.17,-30.58 -5.02,-2.66 -9.43,-4.94 -16.59,-5.54 -5.27,22.67 -52.52,113.8 -65.7,159.41 -5.74,19.87 -10.76,40.44 -15.38,60.28 -4.2,-0.98 -4.24,-1.43 -9.21,-1.85 0,-25.63 5.53,-42 5.53,-66.46 0,-33.27 0.1,-70.42 -3.41,-101.81 -2.67,-23.79 0.89,-47.17 -3.96,-68.04 -5.91,0.49 -14.39,-0.96 -16.17,4.09 -4.38,12.42 -0.94,27.69 -2.52,41.8 -2.26,20.2 -3.42,41.93 -3.42,64.89z"/>
  </g>
 </g>
</svg>
