<?xml version="1.0" encoding="UTF-8"?>
<!DOCTYPE svg PUBLIC "-//W3C//DTD SVG 1.1//EN" "http://www.w3.org/Graphics/SVG/1.1/DTD/svg11.dtd">
<!-- Creator: CorelDRAW -->
<svg xmlns="http://www.w3.org/2000/svg" xml:space="preserve" width="2.44094in" height="1.25984in" version="1.1" style="shape-rendering:geometricPrecision; text-rendering:geometricPrecision; image-rendering:optimizeQuality; fill-rule:evenodd; clip-rule:evenodd"
viewBox="0 0 2440.94 1259.84"
 xmlns:xlink="http://www.w3.org/1999/xlink"
 xmlns:xodm="http://www.corel.com/coreldraw/odm/2003">
 <defs>
  <style type="text/css">
   <![CDATA[
    .fil1 {fill:#FEFEFE}
    .fil0 {fill:#FEFEFE;fill-rule:nonzero}
   ]]>
  </style>
 </defs>
 <g id="Layer_x0020_1">
  <metadata id="CorelCorpID_0Corel-Layer"/>
  <g id="_1556463265408">
   <path class="fil0" d="M0.55 49.86l347.26 0 0 106.8 -232.19 0 0 130.91 197.74 0 0 106.8 -197.74 0 0 184.65 -115.06 0 0 -529.15zm392.73 167.43l102.66 -0.69 6.2 37.21c13.78,-13.32 29.51,-24.35 47.2,-33.07 17.68,-8.72 36.17,-13.09 55.46,-13.09 17.45,0 32.38,1.61 44.78,4.82l-11.02 99.22c-5.05,-0.46 -9.88,-0.92 -14.47,-1.38 -4.59,-0.46 -10.11,-0.69 -16.54,-0.69 -22.05,0 -42.15,4.59 -60.29,13.78 -18.14,9.19 -32.5,20.67 -43.06,34.45l0 221.17 -110.93 0 0 -361.73zm467.83 371.37c-26.64,0 -51.79,-4.71 -75.44,-14.13 -23.66,-9.41 -44.21,-22.5 -61.67,-39.27 -17.46,-16.76 -31.24,-36.86 -41.34,-60.29 -10.1,-23.43 -15.16,-48.92 -15.16,-76.48 0,-28.02 5.06,-53.74 15.16,-77.17 10.11,-23.43 23.89,-43.52 41.34,-60.29 17.45,-16.76 38.01,-29.85 61.67,-39.27 23.65,-9.42 48.8,-14.13 75.44,-14.13 25.26,0 48.81,4.71 70.62,14.13 21.82,9.42 40.88,22.85 57.19,40.31 16.31,17.45 29.17,38.47 38.58,63.04 9.42,24.57 14.13,52.25 14.13,83.02l0 29.63 -264.58 0c4.59,17.45 14.59,31.92 29.97,43.41 15.39,11.48 33.42,17.22 54.09,17.22 14.24,0 28.71,-2.87 43.41,-8.61 14.7,-5.74 26.64,-15.96 35.83,-30.66l97.15 28.94c-16.08,30.78 -39.39,55.24 -69.93,73.38 -30.55,18.15 -66.03,27.22 -106.45,27.22zm73.04 -231.5c-3.67,-17.46 -12.4,-31.58 -26.18,-42.37 -13.78,-10.8 -31.01,-16.19 -51.68,-16.19 -18.37,0 -35.02,5.17 -49.95,15.5 -14.93,10.33 -24.69,24.69 -29.28,43.06l157.09 0zm261.13 158.47l-146.76 -298.34 121.26 0 84.75 183.96 84.75 -183.96 124.71 0 -248.73 506.42 -120.57 0 100.59 -208.08zm454.05 73.04c-22.51,0 -44.56,-4.25 -66.15,-12.75 -21.59,-8.5 -40.88,-20.9 -57.87,-37.2 -17,-16.31 -30.66,-36.17 -41,-59.6 -10.33,-23.43 -15.5,-50.3 -15.5,-80.61 0,-28.02 4.94,-53.74 14.81,-77.17 9.87,-23.43 23.54,-43.52 41,-60.29 17.45,-16.76 38.13,-29.85 62.01,-39.27 23.89,-9.42 50.07,-14.13 78.55,-14.13 16.08,0 30.89,1.49 44.44,4.48 13.55,2.98 26.3,7 38.24,12.06l0 -183.27 101.97 -23.43 8.96 0 0 561.54 -102.66 0 -4.82 -22.05c-27.1,21.13 -61.09,31.69 -101.97,31.69zm-70.28 -188.79c0,13.32 2.3,25.84 6.89,37.55 4.59,11.71 11.03,21.82 19.3,30.31 8.27,8.5 17.91,15.16 28.94,19.98 11.02,4.82 22.74,7.23 35.14,7.23 16.54,0 31.81,-3.44 45.82,-10.33 14.01,-6.89 24.92,-15.85 32.73,-26.87l0 -127.47c-9.19,-8.27 -19.98,-14.81 -32.38,-19.63 -12.4,-4.82 -25.95,-7.24 -40.65,-7.24 -14.24,0 -27.21,2.41 -38.93,7.24 -11.71,4.82 -21.81,11.6 -30.31,20.32 -8.5,8.73 -15.04,18.95 -19.64,30.66 -4.59,11.71 -6.89,24.46 -6.89,38.24zm365.17 -182.59l110.93 0 0 361.73 -110.93 0 0 -361.73zm-11.71 -117.13c0,-19.75 6.43,-35.83 19.3,-48.23 12.86,-12.4 28.94,-18.61 48.23,-18.61 18.83,0 34.68,6.2 47.54,18.61 12.86,12.4 19.3,28.48 19.3,48.23 0,19.29 -6.43,35.02 -19.3,47.2 -12.86,12.17 -28.7,18.26 -47.54,18.26 -19.29,0 -35.37,-6.09 -48.23,-18.26 -12.86,-12.17 -19.3,-27.91 -19.3,-47.2zm348.64 488.5c-17,0 -33.76,-1.95 -50.3,-5.85 -16.54,-3.91 -32.04,-9.19 -46.51,-15.85 -14.47,-6.66 -27.56,-14.35 -39.27,-23.08 -11.71,-8.73 -21.7,-17.69 -29.97,-26.87l65.46 -67.52c10.56,11.02 20.78,19.75 30.66,26.18 9.87,6.43 19.29,11.37 28.25,14.81 8.96,3.44 17,5.74 24.11,6.89 7.12,1.15 13.2,1.72 18.26,1.72 10.11,0 19.29,-1.95 27.56,-5.85 8.27,-3.91 12.4,-9.99 12.4,-18.26 0,-7.81 -3.44,-13.89 -10.33,-18.26 -6.89,-4.36 -17.69,-8.61 -32.38,-12.74l-55.12 -15.16c-31.23,-8.72 -54.2,-22.5 -68.9,-41.34 -14.7,-18.83 -22.05,-39.5 -22.05,-62.01 0,-15.61 3.33,-30.54 9.99,-44.78 6.66,-14.24 16.31,-26.76 28.94,-37.55 12.63,-10.8 28.13,-19.41 46.51,-25.84 18.37,-6.43 39.5,-9.65 63.39,-9.65 15.62,0 30.09,1.38 43.41,4.13 13.32,2.76 25.5,6.31 36.52,10.68 11.02,4.36 20.56,9.19 28.59,14.47 8.04,5.28 14.81,10.22 20.33,14.81l-64.76 66.83c-7.35,-4.59 -16.65,-9.65 -27.91,-15.16 -11.26,-5.51 -24,-8.27 -38.24,-8.27 -11.94,0 -21.02,2.3 -27.22,6.89 -6.2,4.59 -9.3,10.11 -9.3,16.54 0,4.13 1.5,8.15 4.48,12.06 2.98,3.91 8.61,7 16.88,9.3l54.43 13.78c14.7,3.67 28.94,8.38 42.72,14.12 13.78,5.74 25.95,13.09 36.52,22.05 10.56,8.96 18.95,19.75 25.15,32.38 6.2,12.63 9.3,27.67 9.3,45.13 0,19.29 -4.13,36.4 -12.4,51.33 -8.27,14.93 -19.29,27.56 -33.07,37.89 -13.78,10.33 -29.86,18.26 -48.23,23.77 -18.37,5.51 -37.67,8.27 -57.87,8.27z"/>
   <polygon class="fil1" points="0.48,742.88 2435.98,742.88 2435.98,759.6 0.48,759.6 "/>
   <path class="fil0" d="M-2.69 809.91l134.49 0 0 23.08 -109.98 0 0 77.5 95.74 0 0 23.08 -95.74 0 0 72.09 109.98 0 0 23.08 -134.49 0 0 -218.83zm166.4 0l26.5 0 71.52 170.1 71.8 -170.1 26.5 0 -96.59 222.53 -3.13 0 -96.59 -222.53zm235.64 0l134.49 0 0 23.08 -109.98 0 0 77.5 95.74 0 0 23.08 -95.74 0 0 72.09 109.98 0 0 23.08 -134.49 0 0 -218.83zm182.35 -3.7l2.85 0 143.89 164.41 0 -162.13 24.5 0 0 222.53 -2.85 0 -143.89 -164.41 0 162.13 -24.5 0 0 -222.53zm281.23 26.78l-67.24 0 0 -23.08 158.99 0 0 23.08 -67.24 0 0 195.75 -24.5 0 0 -195.75zm200.87 -23.08l78.64 0c9.5,0 18.33,1.61 26.5,4.85 8.17,3.23 15.24,7.83 21.23,13.82 5.98,5.98 10.73,13.11 14.25,21.37 3.51,8.26 5.27,17.43 5.27,27.49 0,10.07 -1.76,19.24 -5.27,27.5 -3.52,8.26 -8.26,15.39 -14.25,21.37 -5.98,5.98 -13.06,10.59 -21.23,13.82 -8.17,3.23 -17,4.85 -26.5,4.85l-54.14 0 0 83.77 -24.5 0 0 -218.83zm78.35 112.55c6.08,0 11.64,-1.04 16.67,-3.13 5.04,-2.09 9.45,-5.08 13.25,-8.98 3.8,-3.89 6.74,-8.59 8.83,-14.1 2.09,-5.51 3.13,-11.68 3.13,-18.52 0,-6.84 -1.04,-13.01 -3.13,-18.52 -2.09,-5.51 -5.04,-10.21 -8.83,-14.11 -3.8,-3.89 -8.21,-6.89 -13.25,-8.97 -5.03,-2.09 -10.59,-3.14 -16.67,-3.14l-53.85 0 0 89.47 53.85 0zm110.56 -111.98l24.5 0 0 195.18 109.98 0 0 23.08 -134.49 0 0 -218.26zm257.86 -4.28l3.13 0 96.59 222.53 -26.5 0 -18.81 -44.45 -105.71 0 -18.8 44.45 -26.5 0 96.59 -222.53zm45.02 155.57l-43.59 -103.15 -43.31 103.15 86.9 0zm94.03 -155.57l2.85 0 143.89 164.41 0 -162.13 24.5 0 0 222.53 -2.85 0 -143.89 -164.41 0 162.13 -24.5 0 0 -222.53zm226.52 0l2.85 0 143.89 164.41 0 -162.13 24.5 0 0 222.53 -2.85 0 -143.89 -164.41 0 162.13 -24.5 0 0 -222.53zm226.52 3.7l134.49 0 0 23.08 -109.98 0 0 77.5 95.74 0 0 23.08 -95.74 0 0 72.09 109.98 0 0 23.08 -134.49 0 0 -218.83zm182.35 0l78.64 0c9.5,0 18.33,1.61 26.5,4.85 8.17,3.23 15.24,7.83 21.23,13.82 5.98,5.98 10.73,13.11 14.25,21.37 3.51,8.26 5.27,17.43 5.27,27.49 0,8.55 -1.28,16.48 -3.85,23.8 -2.57,7.31 -6.08,13.77 -10.54,19.37 -4.46,5.6 -9.83,10.35 -16.1,14.24 -6.27,3.9 -13.11,6.7 -20.52,8.41l57.56 85.48 -27.35 0 -56.13 -83.77 -44.45 0 0 83.77 -24.5 0 0 -218.83zm78.35 112.55c6.08,0 11.64,-1.04 16.67,-3.13 5.04,-2.09 9.45,-5.08 13.25,-8.98 3.8,-3.89 6.74,-8.59 8.83,-14.1 2.09,-5.51 3.13,-11.68 3.13,-18.52 0,-6.84 -1.04,-13.01 -3.13,-18.52 -2.09,-5.51 -5.04,-10.21 -8.83,-14.11 -3.8,-3.89 -8.21,-6.89 -13.25,-8.97 -5.03,-2.09 -10.59,-3.14 -16.67,-3.14l-53.85 0 0 89.47 53.85 0z"/>
  </g>
 </g>
</svg>
